<?xml version="1.0" standalone="no"?>
<!DOCTYPE svg PUBLIC "-//W3C//DTD SVG 1.1//EN" "http://www.w3.org/Graphics/SVG/1.1/DTD/svg11.dtd" >
<svg xmlns="http://www.w3.org/2000/svg">
<metadata></metadata>
<defs>
<font id="tstar_mono_roundlight" horiz-adv-x="1228" >
<font-face units-per-em="2048" ascent="1587" descent="-461" />
<missing-glyph horiz-adv-x="500" />
<glyph horiz-adv-x="2048" />
<glyph horiz-adv-x="2048" />
<glyph unicode="&#xd;" horiz-adv-x="2048" />
<glyph unicode=" " />
<glyph unicode="!" d="M547 25v133h133v-133h-133zM580 451v993q0 15 10.5 27t25.5 12t27 -12t12 -27v-993q0 -15 -12 -26t-27 -11t-25.5 11t-10.5 26z" />
<glyph unicode="&#x22;" d="M412 1182v264q0 20 13.5 33.5t33.5 13.5t33.5 -13.5t13.5 -33.5v-264q0 -20 -13.5 -33.5t-33.5 -13.5t-33.5 13.5t-13.5 33.5zM721 1182v264q0 20 13.5 33.5t33.5 13.5t33.5 -13.5t13.5 -33.5v-264q0 -20 -13.5 -33.5t-33.5 -13.5t-33.5 13.5t-13.5 33.5z" />
<glyph unicode="#" d="M127 565q0 13 9 23t22 10h194l84 350h-182q-12 0 -21.5 9t-9.5 22q0 12 9.5 22.5t21.5 10.5h197l84 356q6 28 40 21t25 -43l-80 -334h311l84 356q3 11 16.5 17.5t24.5 3.5q31 -5 27 -43l-80 -334h164q13 0 24 -10.5t11 -22.5q0 -13 -10.5 -22t-24.5 -9h-180l-82 -350h166 q12 0 22.5 -10.5t10.5 -22.5q0 -13 -10.5 -23t-22.5 -10h-180l-101 -417q-3 -13 -16.5 -18.5t-28.5 -0.5q-11 2 -17.5 14.5t-2.5 26.5l92 395h-309l-99 -417q-3 -13 -17 -18.5t-28 -0.5q-12 2 -18 14t-2 27l92 395h-178q-13 0 -22 9.5t-9 23.5zM424 598h309l84 350h-311z " />
<glyph unicode="$" d="M215 360q0 14 11 24.5t26 10.5q14 0 24.5 -10.5t10.5 -24.5q0 -129 78.5 -203t205.5 -83v680l-176 102q-76 45 -120 126t-44 171q0 137 92.5 221t247.5 92v99q0 14 9 24t22 10t23 -10t10 -24v-99q160 -8 257 -100t97 -238q0 -13 -10.5 -23.5t-24.5 -10.5t-24 10t-10 24 q0 125 -79 191t-206 72v-594l188 -109q102 -59 146.5 -142t44.5 -200q0 -153 -106 -246.5t-273 -99.5v-94q0 -14 -10 -24.5t-23 -10.5t-22 10.5t-9 24.5v94q-163 9 -259.5 110t-96.5 250zM303 1149q0 -161 133 -236l135 -79v557q-118 -7 -193 -66.5t-75 -175.5zM635 74 q139 8 222 78.5t83 191.5q0 197 -152 283l-153 90v-643z" />
<glyph unicode="%" d="M59 965v209q0 101 61.5 162t164.5 61q107 0 168 -60t61 -163v-209q0 -102 -62 -163t-167 -61q-104 0 -165 60.5t-61 163.5zM119 965q0 -66 38.5 -113t127.5 -47q78 0 122 42t44 118l2 209q0 30 -7.5 56t-25.5 50t-52.5 38.5t-82.5 14.5q-77 0 -121.5 -41.5t-44.5 -117.5 v-209zM385 12l420 1448q3 12 15 19.5t24 3.5q10 -3 14.5 -15t1.5 -24l-416 -1448q-3 -12 -14 -18t-22 -3q-12 3 -19 14t-4 23zM733 301v209q0 102 62.5 162.5t167.5 60.5q104 0 164.5 -60t60.5 -163v-209q0 -102 -61 -161.5t-164 -59.5q-107 0 -168.5 59t-61.5 162zM795 301 q0 -30 7.5 -56.5t25.5 -51.5t52.5 -39.5t82.5 -14.5q77 0 121 43t44 119v209q0 31 -7.5 57.5t-25.5 50.5t-51.5 38t-80.5 14q-78 0 -123 -42.5t-45 -117.5v-209z" />
<glyph unicode="&#x26;" d="M131 395q0 241 191 353l84 47l-101 86q-69 60 -98 119.5t-29 138.5q0 85 34 150t88.5 101.5t114.5 54t122 17.5q162 0 271 -94t110 -246q0 -14 -11 -24.5t-24 -10.5t-24 10.5t-11 24.5q-1 122 -90 193t-221 71q-42 0 -79 -6t-76.5 -22.5t-67.5 -43.5t-46 -73t-18 -106 q0 -81 27.5 -125.5t93.5 -100.5l716 -614q9 -7 10 -22.5t-7 -24.5q-7 -9 -23 -9.5t-25 7.5l-143 123q-4 -94 -38.5 -166.5t-89.5 -114t-119 -62t-134 -20.5q-75 0 -140.5 20.5t-122.5 64t-90.5 121.5t-33.5 183zM203 391q0 -72 19 -128t49.5 -90.5t73 -57t85 -31t88.5 -8.5 q139 0 226 83t87 247v18l-372 326l-103 -60q-153 -89 -153 -299z" />
<glyph unicode="'" d="M567 1182v264q0 20 13.5 33.5t33.5 13.5t34 -13.5t14 -33.5v-264q0 -20 -14 -33.5t-34 -13.5t-33.5 13.5t-13.5 33.5z" />
<glyph unicode="(" d="M512 166v1126q0 85 19 140.5t71 113.5l55 58q12 10 27.5 10t24.5 -10q9 -12 8 -27.5t-12 -26.5q-63 -63 -87 -108q-32 -60 -32 -162v-1102q0 -102 32 -162q7 -15 19 -32t20 -25.5t26.5 -27.5t21.5 -23q10 -11 9 -26.5t-12 -24.5t-25.5 -8t-23.5 12l-51 51 q-52 58 -71 113.5t-19 140.5z" />
<glyph unicode=")" d="M512 1576.5q-1 15.5 8 27.5q9 10 24 10t27 -10l56 -58q52 -58 71 -113.5t19 -140.5v-1126q0 -85 -19 -140.5t-71 -113.5l-52 -51q-9 -11 -23.5 -12t-25.5 8t-11.5 24.5t9.5 26.5q4 5 17.5 18.5t20 21t17 20t18 24.5t13.5 24q33 62 33 162v1102q0 100 -33 162 q-25 47 -86 108q-11 11 -12 26.5z" />
<glyph unicode="*" d="M334 979l237 129l-237 129l28 47l230 -139l-6 272h57l-8 -272l233 139l27 -47l-238 -129l238 -129l-27 -49l-233 141l8 -272h-57l6 272l-230 -141z" />
<glyph unicode="+" d="M178 588q0 14 10 23.5t23 9.5h367v356q0 14 9.5 23.5t22.5 9.5q14 0 23.5 -10t9.5 -23v-356h373q14 0 23.5 -9.5t9.5 -23.5t-9.5 -23.5t-23.5 -9.5h-373v-383q0 -14 -9.5 -23.5t-23.5 -9.5q-13 0 -22.5 9.5t-9.5 23.5v383h-367q-13 0 -23 9.5t-10 23.5z" />
<glyph unicode="," d="M471 -233l147 399h138l-250 -399h-35z" />
<glyph unicode="-" d="M326 553q0 14 9.5 23.5t22.5 9.5h510q14 0 23.5 -10t9.5 -23t-9.5 -23t-23.5 -10h-510q-13 0 -22.5 9.5t-9.5 23.5z" />
<glyph unicode="." d="M553 27v139h121v-139h-121z" />
<glyph unicode="/" d="M315 -61l531 1630q4 13 18.5 20t26.5 2q14 -5 20 -17.5t2 -27.5l-530 -1630q-9 -29 -45 -22q-12 3 -19.5 16.5t-3.5 28.5z" />
<glyph unicode="0" d="M252 369v737q0 40 8.5 82.5t33 93t63 89.5t106 65t153.5 26q85 0 151 -26t104 -64.5t62.5 -89.5t33 -94t8.5 -84v-737q0 -41 -8.5 -84.5t-34 -94.5t-64 -90t-106.5 -65.5t-154 -26.5q-85 0 -150.5 26.5t-103.5 65.5t-62 90.5t-32 95t-8 85.5zM324 371q0 -71 21.5 -125.5 t52.5 -85t73 -49.5t76.5 -25t68.5 -6t68 6t75.5 25t72.5 49.5t52 85t21 125.5l2 729q0 71 -21.5 125.5t-52.5 85t-72.5 49.5t-76 25t-68.5 6t-68.5 -6t-76.5 -25t-73 -49.5t-52.5 -85t-21.5 -125.5v-729z" />
<glyph unicode="1" d="M229 61q0 15 10 26t25 11h4h310v1278h-226h-4q-15 0 -25 10t-10 25t10 26t25 11h299v-1350h316q15 0 25.5 -11t10.5 -26t-10.5 -24.5t-25.5 -9.5h-695h-4q-15 0 -25 9.5t-10 24.5z" />
<glyph unicode="2" d="M211 27v243q0 143 117 260q45 45 126.5 98t155 98.5t144 98.5t113 118.5t42.5 137.5q0 150 -83 231t-230 81q-33 0 -67 -5t-78.5 -22.5t-78.5 -44.5t-59.5 -76.5t-29.5 -114.5q0 -15 -11 -24.5t-26 -9.5t-25 9.5t-10 24.5q0 39 12 82t41.5 88t72.5 80.5t110 58.5t149 23 q170 0 277.5 -104.5t107.5 -270.5q0 -83 -38.5 -154t-100 -123.5t-136 -100.5t-149 -94t-136 -94t-100 -111.5t-38.5 -135.5v-176h698q15 0 26 -11t11 -26t-11 -24.5t-26 -9.5h-770z" />
<glyph unicode="3" d="M229 375q0 15 10 26t25 11t26 -11t11 -26q0 -73 23.5 -129t57.5 -87t78.5 -51t80 -26t69.5 -6q33 0 70 7t82.5 27.5t80.5 52t59 86.5t24 126v106q0 71 -24.5 125.5t-59.5 84.5t-81 49t-81.5 24.5t-69.5 5.5h-67v82l348 524h-619q-15 0 -24.5 11t-9.5 26t9.5 26t24.5 11 h689v-88l-347 -520q93 -5 164.5 -33.5t111.5 -67t65.5 -88t33.5 -89.5t8 -79v-110q0 -40 -10 -85t-37 -97.5t-68 -93t-109.5 -68t-154.5 -27.5q-88 0 -158 26.5t-112 66.5t-70 92t-38.5 98t-10.5 88z" />
<glyph unicode="4" d="M246 453v114l327 881q5 14 17.5 20t25.5 2q12 -5 18.5 -18t2.5 -25l-332 -905h604v561q0 15 10 26t25 11t25 -11t10 -26l2 -1058q0 -15 -10 -25t-25 -10t-25 10t-10 25v428h-665z" />
<glyph unicode="5" d="M219 373q0 15 10 26t25 11t26 -11t11 -26q0 -135 88.5 -215t232.5 -80q83 0 155.5 33.5t121.5 104.5t49 165v98q0 81 -35.5 149.5t-110.5 113t-176 44.5h-333v117l39 543h608q15 0 26 -11t11 -26t-11 -25t-26 -10h-543l-37 -514h271q103 0 191 -46t142 -133.5t54 -197.5 v-100q0 -162 -116 -269.5t-280 -107.5q-167 0 -280 101.5t-113 265.5z" />
<glyph unicode="6" d="M231 365v737q0 39 11 83.5t39 94.5t70.5 89.5t112.5 66t157 26.5q80 0 143.5 -23.5t101.5 -59t63.5 -82t35 -89t10.5 -84.5q0 -15 -11 -24.5t-26 -9.5t-25 9.5t-10 24.5q-3 64 -26 113.5t-54 78t-71.5 46t-74 23.5t-65.5 6t-69 -8t-81 -29t-78.5 -52.5t-57.5 -84.5 t-23 -119v-353q49 81 133.5 117.5t184.5 36.5q85 0 153.5 -26.5t108.5 -66t67 -90t37 -95t10 -84.5v-175q0 -38 -10.5 -81.5t-38 -93.5t-69 -89t-111 -65.5t-156.5 -26.5q-85 0 -154 26.5t-110 66t-68.5 90t-38 94t-10.5 82.5zM303 369q0 -71 23.5 -126t57.5 -85t78.5 -49 t80 -25t69.5 -6q23 0 47.5 3t56 11t59.5 21t56 36t48 52t32.5 72.5t12.5 95.5l2 166q0 69 -24 123t-58.5 84.5t-80 50t-82 26t-69.5 6.5t-69 -6.5t-80.5 -26.5t-78.5 -51t-57.5 -86.5t-23.5 -126.5v-159z" />
<glyph unicode="7" d="M195 1409q0 17 9.5 28t24.5 11h805v-86l-497 -1337q-4 -13 -18.5 -19.5t-29.5 -1.5q-13 4 -19 17t-1 28l496 1325h-736q-15 0 -24.5 10t-9.5 25z" />
<glyph unicode="8" d="M215 385v35q0 38 9.5 80t32 92.5t71.5 94.5t118 69q-51 19 -90.5 51t-62 66.5t-36.5 74.5t-19 71t-5 60v27q0 38 10 81.5t37.5 93.5t68.5 89t110.5 65.5t156.5 26.5q86 0 154.5 -25.5t109.5 -64t68 -88.5t37 -94.5t10 -85.5v-27q0 -35 -10.5 -76t-32.5 -88t-66.5 -89 t-103.5 -66q69 -27 118 -72t71.5 -95.5t31.5 -92t9 -80.5v-35q0 -42 -10.5 -87.5t-39.5 -98.5t-72.5 -94.5t-116.5 -69t-165 -27.5q-89 0 -160.5 27.5t-113.5 69.5t-70 95t-38.5 99t-10.5 88zM291 389q0 -75 24.5 -132.5t60.5 -89t83.5 -51.5t85 -26t73.5 -6t73 6t84 26 t82.5 51.5t60 89t24.5 132.5v25q0 150 -93 227.5t-241 77.5q-138 0 -227.5 -82.5t-89.5 -222.5v-25zM305 1081q0 -138 87.5 -213t225.5 -75q136 0 223 76t87 212v19q0 71 -23.5 126t-57.5 85t-79 49t-81 25t-71 6q-28 0 -57 -4.5t-66 -15t-69 -32t-59.5 -52t-43.5 -79 t-16 -108.5v-19z" />
<glyph unicode="9" d="M231 934v174q0 38 10.5 81.5t38 93.5t69 89t111 65.5t156.5 26.5q86 0 154 -24.5t109 -62t68 -86.5t37.5 -94.5t10.5 -90.5v-737q0 -39 -10.5 -83.5t-38.5 -95t-69.5 -90t-111.5 -66t-157 -26.5q-80 0 -143.5 23.5t-101.5 59t-63.5 82t-35 89t-10.5 84.5q0 17 10.5 26 t26.5 9q15 0 25 -10t10 -25q3 -64 26 -113.5t54 -77.5t71 -46t73.5 -23.5t65.5 -5.5t69.5 8t81 29t78 52.5t58 84.5t23.5 119v352q-49 -81 -133.5 -117.5t-184.5 -36.5q-85 0 -153.5 26.5t-109 66t-67.5 90.5t-37 95.5t-10 84.5zM303 936q0 -69 23.5 -123.5t58.5 -85t80 -50 t81.5 -26t69.5 -6.5t69.5 6.5t81 26.5t78.5 51t57.5 86.5t23.5 126.5v160q0 71 -23.5 126t-57.5 85t-79 49t-80.5 25t-69.5 6q-28 0 -57 -4.5t-66 -15t-69 -32t-59.5 -52t-43.5 -79t-16 -108.5z" />
<glyph unicode=":" d="M555 25v139h119v-139h-119zM555 582v139h119v-139h-119z" />
<glyph unicode=";" d="M465 -188l149 350h150l-232 -350h-67zM635 582v139h119v-139h-119z" />
<glyph unicode="&#x3c;" d="M319 559l519 518q11 11 25.5 11.5t25.5 -9.5q11 -11 11 -27t-11 -26l-463 -467l469 -473q11 -10 11 -26t-11 -27q-11 -10 -25.5 -9.5t-25.5 11.5z" />
<glyph unicode="=" d="M221 471q0 14 10 24.5t23 10.5h719q13 0 24 -11t11 -24t-10.5 -23t-24.5 -10h-719q-14 0 -23.5 10t-9.5 23zM221 780q0 14 10 24.5t23 10.5h719q13 0 24 -10.5t11 -24.5q0 -13 -10.5 -22.5t-24.5 -9.5h-719q-14 0 -23.5 9.5t-9.5 22.5z" />
<glyph unicode="&#x3e;" d="M322 60q0 16 10 26l469 473l-463 467q-10 10 -10 26t10 27q11 10 25.5 9.5t25.5 -11.5l518 -518l-524 -524q-11 -11 -25.5 -11.5t-25.5 9.5q-10 11 -10 27z" />
<glyph unicode="?" d="M231 1130v7q0 37 12.5 78.5t42 86t72 80t109.5 58t147 22.5q170 0 276.5 -104t106.5 -271q0 -56 -14 -104.5t-32 -79.5t-47 -60t-48 -43t-45 -30q-35 -23 -50.5 -33t-43 -31t-40 -35t-30.5 -37.5t-25.5 -46t-13.5 -53.5t-6 -67v-74q0 -15 -11 -25t-26 -10t-25 10t-10 25 v68q0 219 185 327q40 25 57.5 36.5t48.5 34.5t45.5 42t31.5 46.5t23.5 60.5t6.5 73q0 149 -83 230.5t-231 81.5q-33 0 -67 -5t-78 -22.5t-77.5 -44.5t-59 -76.5t-29.5 -114.5q0 -15 -10.5 -25.5t-24.5 -10.5q-15 0 -26 10.5t-11 25.5zM508 25v133h131v-133h-131z" />
<glyph unicode="@" d="M231 111v831q0 38 10.5 81.5t38 93.5t69 89t111 65.5t156.5 26.5q85 0 153.5 -26.5t109.5 -66t68.5 -89.5t37.5 -93.5t10 -82.5v-915q0 -13 -10 -23t-24 -10q-13 0 -23 10t-10 23v135q-78 -96 -203 -92q-109 0 -181.5 61.5t-72.5 179.5v346q0 118 75 181t185 63 q48 0 106 -23.5t91 -74.5v135q0 68 -23.5 121.5t-58.5 84t-79 51t-81 27.5t-70 7q-34 0 -70 -5.5t-81.5 -24.5t-79.5 -49t-58 -85t-24 -127v-823q0 -66 20.5 -118t51 -82t71.5 -50.5t75.5 -28.5t70.5 -10q15 0 25 -10.5t10 -24.5q-2 -15 -12 -25t-25 -10q-83 5 -148.5 33 t-104 66.5t-63.5 87t-34 90t-9 80.5zM535 315q0 -92 55.5 -139t134.5 -47q37 0 71 10t64.5 30.5t49 57.5t18.5 86l2 340q0 39 -13 70.5t-33.5 51.5t-48 34t-54.5 19.5t-54 5.5q-79 0 -135.5 -47.5t-56.5 -139.5v-332z" />
<glyph unicode="A" d="M154 43l329 1405h258l334 -1407q1 -6 1 -11q0 -10 -4 -17q-8 -12 -21 -15q-4 -1 -8 -1q-11 -1 -21 5q-14 8 -16 23l-105 426h-573l-105 -426q-8 -28 -35 -28q-5 0 -10 1q-26 6 -26 30q0 7 2 15zM342 522h543l-193 856h-155z" />
<glyph unicode="B" d="M225 25v1423h404q86 0 152 -25.5t102.5 -62.5t59 -87t29.5 -90.5t7 -82.5v-25q0 -39 -6.5 -77.5t-25 -88.5t-60.5 -90t-103 -59q51 -16 89.5 -40.5t61.5 -55.5t38 -60t21 -64t8 -57.5t2 -50.5v-51q0 -40 -8.5 -82.5t-33.5 -93t-63.5 -89.5t-106 -65t-153.5 -26h-414z M297 96h342q34 0 68.5 6t76.5 25t73.5 49.5t53 85t21.5 125.5v43q0 71 -19 125.5t-47.5 85.5t-68 50t-74.5 25.5t-74 6.5h-352v-627zM297 795h344q39 0 72 5.5t70.5 23.5t63.5 47.5t43 83t17 124.5v19q0 71 -20 124.5t-49 82.5t-69.5 46t-72.5 22t-67 5h-332v-583z" />
<glyph unicode="C" d="M231 369v737q0 38 10.5 81.5t38 93.5t69 89t111 65.5t156.5 26.5q83 0 150.5 -24.5t108.5 -62.5t68.5 -87t38.5 -93.5t11 -86.5q0 -13 -10.5 -23t-24.5 -10q-13 0 -22.5 9.5t-9.5 23.5q-1 70 -24.5 123.5t-57.5 83.5t-78.5 48.5t-80 24t-69.5 5.5t-70 -5.5t-81.5 -24.5 t-79.5 -49t-58 -85t-24 -127v-733q0 -72 24 -127t58 -85t79.5 -49t81.5 -24.5t70 -5.5t69.5 6t80.5 25t79 49.5t57.5 85.5t23.5 127q0 15 9.5 26t22.5 11q15 0 26 -11t11 -26q0 -41 -10.5 -85.5t-38.5 -95.5t-69.5 -91t-111.5 -66.5t-157 -26.5q-85 0 -153.5 26.5t-109 66 t-67.5 90.5t-37 95.5t-10 84.5z" />
<glyph unicode="D" d="M229 25v1425h404q86 0 153.5 -26t106 -65t63 -89.5t33 -93t8.5 -82.5v-707q0 -42 -8 -85.5t-32 -94.5t-62 -90t-103.5 -65.5t-150.5 -26.5h-412zM301 96h336q35 0 69 6t75 25.5t71.5 50t51 85.5t20.5 126l2 698q0 71 -21.5 125.5t-53 85t-73.5 49.5t-76.5 25t-68.5 6 h-332v-1282z" />
<glyph unicode="E" d="M231 25v1423h730q13 0 23.5 -10.5t10.5 -24.5t-10.5 -24.5t-23.5 -10.5h-656v-563h606q13 0 24 -10.5t11 -24.5t-11 -24.5t-24 -10.5h-606v-651h656q13 0 23.5 -10.5t10.5 -24.5q0 -13 -10.5 -23.5t-23.5 -10.5h-730z" />
<glyph unicode="F" d="M231 25v1423h730q13 0 23.5 -10.5t10.5 -24.5t-10.5 -24.5t-23.5 -10.5h-658v-567h608q13 0 24 -10.5t11 -24.5t-11 -24.5t-24 -10.5h-606v-716h-74z" />
<glyph unicode="G" d="M229 369v737q0 38 10.5 81.5t38 93.5t69 89t111 65.5t156.5 26.5q85 0 153.5 -26t109 -65.5t67.5 -89.5t37 -93.5t10 -83.5q0 -14 -10.5 -24.5t-24.5 -10.5q-13 0 -22.5 10.5t-9.5 24.5q0 71 -23.5 125.5t-57.5 84.5t-79 49t-80.5 24.5t-69.5 5.5t-70 -5.5t-81.5 -24.5 t-79.5 -49t-58 -85t-24 -127v-733q0 -72 24 -127t58 -85t79.5 -49t81.5 -24.5t70 -5.5q23 0 47.5 3t56 11t59.5 21.5t56 36t48 52t32.5 72.5t12.5 95v331h-316q-14 0 -24.5 11t-10.5 24t10.5 24t24.5 11h387v-403q0 -39 -11 -83.5t-39.5 -95t-70.5 -90t-112.5 -66 t-157.5 -26.5q-85 0 -153.5 26.5t-109 66t-67.5 90.5t-37 95.5t-10 84.5z" />
<glyph unicode="H" d="M217 25v1423q0 15 10 26t25 11t26 -11t11 -26v-637h651v637q0 15 10 26t25 11t26 -11t11 -26v-1423q0 -15 -11 -25t-26 -10t-25 10t-10 25v716h-651v-716q0 -15 -11 -25t-26 -10t-25 10t-10 25z" />
<glyph unicode="I" d="M274 59q0 15 10 26t25 11h269v1280h-269q-15 0 -25 10t-10 25t10 26t25 11h606q15 0 26 -11t11 -26t-11 -25t-26 -10h-268v-1280h268q15 0 26 -11t11 -26t-11 -24.5t-26 -9.5h-606q-15 0 -25 9.5t-10 24.5z" />
<glyph unicode="J" d="M272 367q0 15 10 25.5t25 10.5t26 -10.5t11 -25.5q0 -69 18 -122t45.5 -84t65 -50.5t71.5 -26t70 -6.5q48 0 91.5 12t86.5 40t69 85t26 137v1024h-457q-15 0 -25 10t-10 25t10 26t25 11h526v-1083q0 -169 -91 -264t-253 -95q-159 0 -249.5 96.5t-90.5 264.5z" />
<glyph unicode="K" d="M238 25v1423q0 15 9.5 26t24.5 11t26 -11t11 -26v-821l561 821q7 12 23.5 14t26.5 -6q11 -8 14 -21.5t-4 -25.5l-402 -590l465 -774q6 -11 6 -21q-1 -4 -1 -8q-4 -14 -17 -22q-8 -5 -18 -5q-5 0 -10 1q-16 4 -25 20l-441 748l-178 -256v-477q0 -15 -11 -25t-26 -10 t-24.5 10t-9.5 25z" />
<glyph unicode="L" d="M231 27v1421q0 15 10 26t25 11t26 -11t11 -26v-1350h655q15 0 26 -11t11 -26t-11 -24.5t-26 -9.5h-727z" />
<glyph unicode="M" d="M143 25v1423h166l305 -870l306 870h165v-1423q0 -15 -10.5 -26t-25.5 -11t-26 11t-11 26v1345h-47l-312 -881h-78l-311 881h-47v-1345q0 -15 -11 -26t-26 -11t-26 11t-11 26z" />
<glyph unicode="N" d="M246 23v1425h168l448 -1360h47v1360q0 15 11 26t26 11t26 -11t11 -26v-1425h-174l-442 1347h-48v-1347q0 -15 -10.5 -26t-25.5 -11t-26 11t-11 26z" />
<glyph unicode="O" d="M229 369v737q0 38 10.5 81.5t38 93.5t69 89t111 65.5t156.5 26.5q85 0 154 -26.5t110.5 -66t69.5 -89.5t38.5 -93.5t10.5 -82.5v-737q0 -39 -11 -83.5t-39.5 -95t-70.5 -90t-112.5 -66t-157.5 -26.5q-85 0 -153.5 26.5t-109 66t-67.5 90.5t-37 95.5t-10 84.5zM301 369 q0 -72 24 -127t58 -85t79.5 -49t81.5 -24.5t70 -5.5t69.5 6t80.5 25t79 49t57.5 85t23.5 126l2 733q0 52 -12.5 95t-32.5 72.5t-48 52t-56 36t-59.5 21.5t-56 11t-47.5 3q-34 0 -70 -5.5t-81.5 -24.5t-79.5 -49t-58 -85t-24 -127v-733z" />
<glyph unicode="P" d="M229 25v1423h404q86 0 153.5 -26t106 -65t63 -89.5t33 -93t8.5 -82.5v-111q0 -42 -8 -85t-32 -94t-62 -90t-103.5 -65t-150.5 -26h-338v-596q0 -15 -11 -26t-26 -11t-26 11t-11 26zM301 690h336q35 0 69 6t75.5 25.5t72 50t51.5 85.5t21 126v104q0 71 -21.5 125.5t-53 85 t-73.5 49.5t-76.5 25t-68.5 6h-332v-688z" />
<glyph unicode="Q" d="M229 369v737q0 38 10.5 81.5t38 93.5t69 89t111 65.5t156.5 26.5q85 0 154 -26.5t110.5 -66t69.5 -89.5t38.5 -93.5t10.5 -82.5v-737q0 -36 -10 -76.5t-35.5 -87.5t-63 -85.5t-100 -69t-139.5 -40.5v-209q0 -12 -10 -22t-23 -10t-21.5 9.5t-8.5 22.5v207q-81 8 -146 37.5 t-103.5 68.5t-63.5 87.5t-34.5 90t-9.5 79.5zM301 371q0 -246 283 -291v293q0 14 8.5 23.5t21.5 9.5q14 0 23.5 -10t9.5 -23v-293q277 49 277 291l2 731q0 52 -12.5 95t-32.5 72.5t-48 52t-56 36t-59.5 21.5t-56 11t-47.5 3q-34 0 -70 -5.5t-81.5 -24.5t-79.5 -49t-58 -85 t-24 -127v-731z" />
<glyph unicode="R" d="M229 25v1423h404q87 0 154.5 -26t106 -64.5t63 -89t32.5 -92.5t8 -82v-72q0 -37 -6.5 -74.5t-26 -83.5t-50 -83.5t-85 -69.5t-124.5 -47l272 -625q6 -18 0 -30t-19 -17q-12 -5 -26.5 -0.5t-20.5 18.5l-282 652h-326v-637q0 -15 -11 -26t-26 -11t-26 11t-11 26zM301 731 h336q35 0 69 6t75 25.5t71.5 50t51 85.5t20.5 126v63q0 71 -21.5 125.5t-52.5 85t-72.5 49.5t-76 25t-68.5 6h-332v-647z" />
<glyph unicode="S" d="M215 360q0 14 11 24.5t26 10.5q14 0 24.5 -10.5t10.5 -24.5q0 -136 89 -211t228 -75q153 0 244.5 71.5t91.5 198.5q0 92 -45 170t-127 125l-358 209q-84 49 -131.5 131.5t-47.5 173.5q0 145 102 230t271 85q173 0 279 -93t106 -247q0 -13 -10.5 -23.5t-24.5 -10.5t-24 10 t-10 24v5q0 67 -25 118t-69 81.5t-100 45.5t-122 15q-61 0 -114 -14t-95.5 -42t-67 -76t-24.5 -112q0 -74 42.5 -140.5t111.5 -105.5l354 -209q203 -118 203 -348q0 -158 -115 -253t-293 -95t-284.5 102.5t-106.5 259.5z" />
<glyph unicode="T" d="M172 1411q0 15 11 26t26 11h811q15 0 26 -11t11 -26t-11 -26t-26 -11h-369v-1349q0 -15 -11 -25t-26 -10t-24.5 10t-9.5 25v1349h-371q-15 0 -26 11t-11 26z" />
<glyph unicode="U" d="M229 369v1079q0 15 10 26t25 11t26 -11t11 -26v-1079q0 -72 24 -127t58 -85t79.5 -49t81.5 -24.5t70 -5.5q23 0 47.5 3t56 11t59.5 21.5t56 36t48 52t32.5 72.5t12.5 95v1079q0 15 10 26t25 11t25.5 -11t10.5 -26v-1081q0 -39 -11 -83.5t-39.5 -95t-70.5 -90t-112.5 -66 t-157.5 -26.5q-85 0 -153.5 26.5t-109 66t-67.5 90.5t-37 95.5t-10 84.5z" />
<glyph unicode="V" d="M209 1430q-1 6 -1 12q0 12 5 20q8 12 25 15q4 1 8 1q10 0 20 -6q14 -8 17 -24l301 -1354h53l307 1354q2 16 16 24q10 6 21 6q4 0 8 -1q17 -3 25 -15q5 -8 5 -20q0 -6 -1 -12l-326 -1405h-153z" />
<glyph unicode="W" d="M68 1438q-1 5 -1 10q0 31 33 37q17 3 29.5 -6.5t15.5 -28.5l191 -1348h41l186 893h92l187 -893h39l192 1352q3 18 16 27q10 7 21 7q4 0 8 -1q20 -3 28 -15q6 -9 6 -23q0 -5 -1 -9l-213 -1420h-145l-185 875l-182 -875h-145z" />
<glyph unicode="X" d="M226 26q-2 7 -3 13q0 8 4 16l338 686l-332 676q-7 15 -1.5 30t20.5 23q9 5 18 5q6 -1 14 -3q16 -6 23 -20l303 -643l303 643q7 14 24 20q7 2 14 3q10 0 18 -5q15 -8 20 -23t-2 -30l-332 -676l338 -686q5 -8 5 -17q0 -6 -2 -12q-6 -16 -21 -24q-9 -5 -18 -5q-5 1 -13 3 q-16 6 -24 20l-310 654l-309 -654q-7 -14 -23 -20q-7 -2 -14 -3q-9 0 -18 5q-14 8 -20 24z" />
<glyph unicode="Y" d="M215 1419q-3 6 -3 13t4 15q6 15 20 21q9 4 17 4t15 -4q13 -6 19 -20l327 -821l326 821q6 14 21 20q7 3 15 3l15 -3q15 -6 21 -20q3 -7 3 -14.5t-3 -14.5l-363 -884v-510q0 -15 -11 -25t-26 -10t-24.5 10t-9.5 25v512z" />
<glyph unicode="Z" d="M213 1411q0 15 10 26t25 11h694v-80l-653 -1270h688q15 0 26 -11t11 -26t-11 -24.5t-26 -9.5h-758v84l649 1265h-620q-15 0 -25 10t-10 25z" />
<glyph unicode="[" d="M475 -150v1727h248q12 0 21.5 -9.5t9.5 -21.5t-9.5 -20t-21.5 -8h-182v-1606h182q12 0 21.5 -9.5t9.5 -21.5t-9.5 -21.5t-21.5 -9.5h-248z" />
<glyph unicode="\" d="M313 1546q-4 15 2.5 27.5t20.5 17.5q15 4 27.5 -2t17.5 -20l530 -1630q4 -15 -2 -27.5t-20 -17.5t-27.5 1t-17.5 21z" />
<glyph unicode="]" d="M475 -119q0 12 9.5 21.5t21.5 9.5h182v1606h-182q-12 0 -21.5 8t-9.5 20t9.5 21.5t21.5 9.5h248v-1727h-248q-12 0 -21.5 9.5t-9.5 21.5z" />
<glyph unicode="^" d="M326 924q-4 12 2 24l241 451h86l244 -453q6 -12 0.5 -25t-16.5 -18t-25 0t-20 17l-226 423l-229 -425q-6 -11 -20 -13.5t-23 2.5q-10 5 -14 17z" />
<glyph unicode="_" d="M61 -285q0 11 7.5 19t19.5 8h1051q12 0 20 -8t8 -19t-8 -19.5t-20 -8.5h-1051q-12 0 -19.5 8.5t-7.5 19.5z" />
<glyph unicode="`" d="M506 1505h88l127 -262h-57z" />
<glyph unicode="a" d="M242 369v354q0 166 101 264t271 98q90 0 177.5 -42.5t126.5 -120.5v145q0 14 9.5 24.5t22.5 10.5q14 0 24.5 -11t10.5 -24v-1042q0 -13 -10.5 -23t-24.5 -10q-13 0 -22.5 9.5t-9.5 23.5v147q-94 -168 -304 -168q-173 0 -272.5 98t-99.5 267zM317 369q0 -42 7 -80 t27.5 -77.5t52.5 -67.5t86 -46t124 -18q139 0 220 76t81 213v354q0 53 -13.5 100t-45.5 92t-94 71t-148 26q-140 0 -218.5 -76.5t-78.5 -212.5v-354z" />
<glyph unicode="b" d="M246 27v1417q0 15 9 26t24 11t25.5 -11t10.5 -26v-506q40 70 126 108.5t173 38.5q172 0 270.5 -96.5t98.5 -265.5v-354q0 -166 -99.5 -265.5t-269.5 -99.5q-90 0 -170 34.5t-127 111.5v-123q0 -15 -10.5 -26t-25.5 -11t-25 11t-10 26zM317 369q0 -42 7 -80t27.5 -77.5 t52.5 -67.5t86 -46t124 -18q138 0 216.5 76.5t78.5 212.5v354q0 42 -7 80t-27 77.5t-51.5 67.5t-85.5 46t-124 18q-140 0 -218.5 -76.5t-78.5 -212.5v-354z" />
<glyph unicode="c" d="M244 369v354q0 166 100 264t270 98q163 0 263 -90t106 -245q0 -14 -11 -24.5t-28 -10.5q-15 0 -25 10t-10 25q-3 51 -18.5 94t-47 82.5t-90.5 62.5t-139 23q-140 0 -218.5 -76.5t-78.5 -212.5v-354q0 -42 7 -80t27.5 -77.5t52.5 -67.5t86 -46t124 -18q132 0 210 69 t85 193q0 14 11 25.5t26 11.5q17 0 28 -11.5t9 -25.5q-9 -157 -108.5 -247.5t-260.5 -90.5q-173 0 -271.5 98t-98.5 267z" />
<glyph unicode="d" d="M244 369v354q0 169 98 265.5t270 96.5q87 0 173 -38.5t126 -108.5v506q0 15 11 26t26 11t24 -11t9 -26v-1417q0 -15 -10 -26t-25 -11t-26 11t-11 26v123q-47 -77 -127 -111.5t-170 -34.5q-170 0 -269 99t-99 266zM317 369q0 -136 78.5 -212.5t216.5 -76.5q70 0 124 18 t86 46t52.5 67.5t27.5 77.5t7 80v354q0 136 -78.5 212.5t-218.5 76.5q-70 0 -124 -18t-85.5 -46t-51.5 -67.5t-27 -77.5t-7 -80v-354z" />
<glyph unicode="e" d="M244 369v354q0 166 100 264t270 98q172 0 270.5 -96.5t98.5 -265.5v-186h-666v-168q0 -42 7 -80t27.5 -77.5t52.5 -67.5t86 -46t124 -18q132 0 210 69t85 193q0 14 11 25.5t26 11.5q14 -1 26 -11q11 -10 11 -23q0 -152 -108 -251q-99 -90 -261 -90q-173 0 -271.5 98 t-98.5 267zM317 612h594l-2 111q0 42 -7 80t-27.5 77.5t-52 67.5t-85 46t-123.5 18q-140 0 -218.5 -76.5t-78.5 -212.5v-111z" />
<glyph unicode="f" d="M313 907q0 14 10 24.5t23 10.5h191v242q0 136 66.5 199t213.5 63h117q14 0 24.5 -11t10.5 -24t-10.5 -23t-24.5 -10h-133q-33 0 -62.5 -7t-60.5 -24t-49.5 -52.5t-18.5 -86.5v-266h371q13 0 24 -11t11 -24t-10.5 -23t-24.5 -10h-371v-847q0 -15 -11 -25t-26 -10t-25.5 10 t-10.5 25v847h-191q-14 0 -23.5 10t-9.5 23z" />
<glyph unicode="g" d="M244 369v354q0 166 100 264t270 98q86 0 171.5 -35.5t125.5 -101.5v117q0 15 10 26t25 11t26 -11t11 -26v-1180q0 -77 -16.5 -135t-44 -93t-67.5 -56.5t-81 -29t-92 -7.5h-61q-13 0 -23 10t-10 23t9.5 22.5t23.5 9.5h77q94 0 152.5 55t58.5 169v292q-47 -69 -128.5 -105 t-166.5 -36q-173 0 -271.5 98t-98.5 267zM317 369q0 -42 7 -80t27.5 -77.5t52.5 -67.5t86 -46t124 -18q138 0 216.5 76.5t78.5 212.5v354q0 42 -7 80t-27.5 77.5t-52 67.5t-85 46t-123.5 18q-140 0 -218.5 -76.5t-78.5 -212.5v-354z" />
<glyph unicode="h" d="M242 27v1417q0 15 9.5 26t24.5 11t26 -11t11 -26v-510q41 74 127 112.5t174 38.5q172 0 271.5 -97t99.5 -265v-696q0 -15 -12 -26t-27 -11t-26 11t-11 26v696q0 42 -7 80t-27 77.5t-51.5 67.5t-85.5 46t-124 18q-131 0 -215 -75.5t-84 -193.5v-716q0 -15 -10.5 -26 t-25.5 -11t-26 11t-11 26z" />
<glyph unicode="i" d="M315 59q0 13 9.5 23t23.5 10h305v914h-305q-14 0 -23.5 9.5t-9.5 22.5q0 14 9.5 23.5t23.5 9.5h379v-979h234q13 0 22.5 -9.5t9.5 -23.5q0 -13 -9.5 -22.5t-22.5 -9.5h-613q-14 0 -23.5 9.5t-9.5 22.5zM635 1319v143h110v-143h-110z" />
<glyph unicode="j" d="M256 1038q0 14 10 23.5t23 9.5h502v-1210q0 -93 -18.5 -153.5t-58 -91t-86 -41.5t-116.5 -11h-162q-14 0 -24.5 11t-10.5 24t10.5 23.5t24.5 10.5h203q24 0 51 9t53.5 27t44 52.5t17.5 79.5v1205h-430q-14 0 -23.5 9.5t-9.5 22.5zM698 1319v143h109v-143h-109z" />
<glyph unicode="k" d="M291 27v1419q0 15 11 26t26 11t26 -11t11 -26v-973l475 594q9 12 25 13.5t26 -7.5q11 -9 13 -23t-7 -26l-303 -381l340 -594q7 -12 7 -23q0 -17 -19 -28q-14 -7 -29 -2.5t-23 16.5l-325 574l-180 -228v-331q0 -15 -11 -25t-26 -10t-26 10t-11 25z" />
<glyph unicode="l" d="M145 59q0 13 9.5 23t23.5 10h305v1290h-223q-14 0 -23.5 10t-9.5 23t9.5 23t23.5 10h295v-1356h317q14 0 23.5 -10t9.5 -23t-9.5 -22.5t-23.5 -9.5h-694q-14 0 -23.5 9.5t-9.5 22.5z" />
<glyph unicode="m" d="M125 25v1044q0 15 10 26t25 11t26 -11t11 -26v-121q24 66 85.5 101.5t137.5 35.5q80 0 131.5 -48t71.5 -113q34 86 103.5 123.5t152.5 37.5q68 0 114.5 -22.5t70 -63.5t33 -86t9.5 -102v-786q0 -15 -11 -25t-26 -10t-25 10t-10 25v778q0 35 -2 59.5t-11.5 56t-26 51 t-47.5 33t-75 13.5q-79 0 -131.5 -40.5t-74 -103t-21.5 -143.5v-704q0 -15 -11 -26t-26 -11t-26 11t-11 26v772q0 219 -155 219q-59 0 -102.5 -24t-68 -68t-35.5 -97.5t-11 -119.5v-682q0 -15 -11 -26t-26 -11t-26 11t-11 26z" />
<glyph unicode="n" d="M244 27v1038q0 15 10 26t25 11t25.5 -11t10.5 -26v-143q35 75 124.5 119t176.5 44q172 0 269.5 -96.5t97.5 -265.5v-696q0 -15 -11 -25t-26 -10t-25 10t-10 25v696q0 42 -7 80t-27.5 77.5t-52 67.5t-85 46t-123.5 18q-131 0 -216 -79t-85 -206v-700q0 -15 -10.5 -25 t-25.5 -10t-25 10t-10 25z" />
<glyph unicode="o" d="M244 369v354q0 166 100 264t270 98q172 0 270.5 -96.5t98.5 -265.5v-354q0 -166 -100 -264.5t-269 -98.5q-173 0 -271.5 97t-98.5 266zM317 369q0 -54 13 -101t43.5 -92t92 -71.5t148.5 -26.5q138 0 216.5 77.5t78.5 213.5v354q0 42 -7 80t-27 77.5t-51.5 67.5t-85.5 46 t-124 18q-140 0 -218.5 -76.5t-78.5 -212.5v-354z" />
<glyph unicode="p" d="M248 -436v1501q0 15 9 26t24 11t25.5 -11t10.5 -26v-129q38 80 121 114.5t176 34.5q170 0 269.5 -98t99.5 -264v-354q0 -169 -98 -267t-271 -98q-86 0 -165.5 35.5t-131.5 112.5v-588q0 -14 -10.5 -25.5t-25.5 -11.5q-14 0 -23.5 11.5t-9.5 25.5zM319 369 q0 -136 78.5 -212.5t216.5 -76.5q70 0 124 18t86 46t52.5 67.5t27.5 77.5t7 80v354q0 136 -78.5 212.5t-218.5 76.5q-70 0 -123.5 -18t-85 -46t-52 -67.5t-27.5 -77.5t-7 -80v-354z" />
<glyph unicode="q" d="M250 369v354q0 166 99 264t269 98q93 0 176 -34.5t121 -114.5v129q0 15 11 26t26 11t24 -11t9 -26v-1501q0 -14 -9.5 -25.5t-23.5 -11.5q-15 0 -26 11.5t-11 25.5v588q-52 -77 -131.5 -112.5t-165.5 -35.5q-172 0 -270 98t-98 267zM322 369q0 -42 7 -80t27 -77.5 t52 -67.5t86 -46t124 -18q138 0 216.5 76.5t78.5 212.5v354q0 42 -7 80t-27.5 77.5t-52 67.5t-85 46t-123.5 18q-140 0 -218 -76.5t-78 -212.5v-354z" />
<glyph unicode="r" d="M225 59q0 14 10 24.5t23 10.5h172v975q0 15 10 26t25 11t26 -11t11 -26v-117q31 63 99 98t147 35q140 0 223.5 -72t87.5 -220q0 -13 -10.5 -24t-24.5 -11t-24.5 11t-10.5 24q-11 221 -241 221q-101 0 -172.5 -66.5t-71.5 -183.5v-670h350q13 0 23 -10.5t10 -24.5t-10 -24 t-23 -10h-596q-13 0 -23 10t-10 24z" />
<glyph unicode="s" d="M242 303q0 15 11 26t26 11t25.5 -11t10.5 -26q3 -217 299 -217q48 0 85 3.5t81 16.5t72.5 35.5t48 64.5t19.5 99q0 63 -37 113.5t-105 70.5l-336 97q-84 23 -132 82.5t-48 140.5q0 73 28 127t77.5 85.5t111 46.5t135.5 15q171 0 269.5 -73.5t101.5 -218.5q0 -15 -11 -25 t-26 -10t-25 10t-10 25q-3 111 -84 166t-219 55q-276 0 -276 -203q0 -52 34.5 -95t98.5 -63l336 -94q89 -25 139.5 -91.5t50.5 -160.5q0 -297 -379 -297q-171 0 -271 75.5t-101 219.5z" />
<glyph unicode="t" d="M150 1030q0 14 9.5 24.5t22.5 10.5h213v379q0 15 10 26t25 11t26 -11t11 -26v-379h356q13 0 24 -10.5t11 -24.5q0 -13 -10.5 -23t-24.5 -10h-356v-661q0 -139 50.5 -201.5t154.5 -62.5q105 0 160 51t61 170q0 13 10.5 24t24.5 11t25 -11q10 -10 10 -24q-1 -147 -81 -223 q-74 -70 -210 -70q-134 0 -205.5 82.5t-71.5 247.5v667h-213q-13 0 -22.5 9.5t-9.5 23.5z" />
<glyph unicode="u" d="M244 369v696q0 15 10 26t25 11t25.5 -11t10.5 -26v-696q0 -42 7 -80t27.5 -77.5t52.5 -67.5t86 -46t124 -18q131 0 215 72.5t84 193.5v719q0 15 10 26t25 11t26 -11t11 -26v-1038q0 -15 -11 -25t-26 -10t-25 10t-10 25v125q-50 -72 -132 -109t-167 -37q-173 0 -270.5 97 t-97.5 266z" />
<glyph unicode="v" d="M281 1049q-1 6 -1 11q0 26 29 34q5 1 10 1q11 1 19 -5q12 -8 16 -25l219 -969h82l217 969q3 15 18 23q11 6 22 7l8 -1q17 -2 25 -16q5 -8 5 -18q0 -6 -2 -13l-241 -1020h-185z" />
<glyph unicode="w" d="M80 1057q-1 4 -1 7q-1 12 7 22q10 14 27 16q4 1 8 1q11 0 21 -7q12 -9 16 -25l172 -969h43l190 969h105l190 -969h43l172 969q3 16 17 24t30 5t24 -16q5 -9 6 -20q0 -4 -1 -9l-195 -1035h-143l-195 984l-196 -984h-144z" />
<glyph unicode="x" d="M292 18l-2 10q0 10 5 19l276 498l-266 485q-18 33 12 51q9 5 19 5q5 0 10 -2q15 -4 21 -15l247 -457l248 457q6 11 20 15l10 2q10 0 19 -5q31 -19 13 -51l-267 -485l277 -498q5 -9 4 -19v-10q-4 -14 -16 -20q-8 -5 -19 -5q-4 0 -9 1q-16 3 -22 14l-258 471l-258 -471 q-6 -11 -22 -14q-5 -1 -8 -1q-10 0 -19 5q-11 6 -15 20z" />
<glyph unicode="y" d="M272 1053q-1 4 -1 7q0 11 7 21q8 14 23 17q4 1 7 1l21 -7q14 -8 17 -23l219 -969h88l228 969q3 15 17 23q10 7 21 7l7 -1q15 -3 23 -17q6 -10 6 -20q0 -4 -1 -8l-309 -1280q-31 -125 -98 -171t-189 -46h-16q-15 0 -26 10.5t-11 25.5t11 26t26 11h25q84 0 138.5 33 t74.5 117l57 244h-119z" />
<glyph unicode="z" d="M225 1032q0 14 10.5 24.5t24.5 10.5h645v-82l-583 -889h647q13 0 24 -11t11 -24t-10.5 -23.5t-24.5 -10.5h-723v73l592 897h-578q-14 0 -24.5 10.5t-10.5 24.5z" />
<glyph unicode="{" d="M477 92v1274q0 68 10.5 103.5t36.5 60.5q46 49 168 49h29q12 0 21.5 -9.5t9.5 -21.5t-9.5 -20t-21.5 -8h-19q-51 0 -79.5 -6t-47.5 -25q-30 -33 -30 -148v-1232q0 -58 5 -89t25 -51q18 -18 45.5 -23t81.5 -5h19q12 0 21.5 -9.5t9.5 -21.5t-9.5 -21.5t-21.5 -9.5h-29 q-122 0 -168 49q-26 25 -36.5 60.5t-10.5 103.5z" />
<glyph unicode="|" d="M580 -94v1659q0 14 9.5 24t22.5 10q14 0 24.5 -10.5t10.5 -23.5v-1659q0 -14 -10.5 -24.5t-24.5 -10.5q-13 0 -22.5 10.5t-9.5 24.5z" />
<glyph unicode="}" d="M477 -90q0 12 9.5 21.5t21.5 9.5h18q54 0 81.5 5t45.5 23q20 20 25.5 52t5.5 88v1232q0 114 -31 148q-19 19 -47.5 25t-79.5 6h-18q-12 0 -21.5 8t-9.5 20t9.5 21.5t21.5 9.5h29q122 0 168 -49q26 -25 36.5 -60.5t10.5 -103.5v-1274q0 -68 -10.5 -103.5t-36.5 -60.5 q-46 -49 -168 -49h-29q-12 0 -21.5 9.5t-9.5 21.5z" />
<glyph unicode="~" d="M264 516q-15 18 2 35q57 53 98.5 72.5t92.5 19.5q36 0 82 -16q43 -15 90 -39q4 -2 22.5 -10t25 -10.5t22 -8t25.5 -8t23.5 -4.5t26.5 -2q39 0 70.5 14t75.5 55l2 2q20 20 39 2q17 -18 -3 -38q-62 -58 -99 -75.5t-89 -17.5q-26 0 -57.5 9t-52 17.5t-66.5 29.5q-5 2 -23 10 t-24.5 10.5t-22 8t-25 8t-23 4.5t-25.5 2q-41 0 -72.5 -14.5t-77.5 -57.5q-8 -7 -18.5 -6.5t-18.5 8.5z" />
<glyph unicode="&#xa0;" />
<glyph unicode="&#xa1;" d="M547 971v133h133v-133h-133zM573 -315v993q0 15 12 26t27 11t26 -11t11 -26v-993q0 -15 -11 -27t-26 -12t-27 12t-12 27z" />
<glyph unicode="&#xa2;" d="M102 729q0 138 67.5 254.5t184 184t254.5 67.5q137 0 253 -67.5t183.5 -184t67.5 -254.5t-67.5 -255t-183.5 -185t-253 -68q-138 0 -254.5 68t-184 185t-67.5 255zM172 729q0 -182 127.5 -313t308.5 -131q118 0 218.5 60t159 162.5t58.5 221.5t-58.5 221.5t-159 163 t-218.5 60.5q-119 0 -219.5 -60.5t-158.5 -163t-58 -221.5zM479 428v563h166q45 0 76.5 -16t46.5 -41t21 -48t6 -46v-43q0 -22 -6 -44.5t-20.5 -48t-46 -41.5t-75.5 -16h-108v-219h-60zM539 709h106q33 0 60.5 20t27.5 70v39q0 36 -16.5 58t-34.5 28t-37 6h-106v-221z" />
<glyph unicode="&#xa3;" d="M188 772q0 14 10 23.5t23 9.5h80v278q0 160 96.5 259.5t259.5 99.5q164 0 265.5 -101.5t101.5 -265.5q0 -15 -11 -25t-26 -10t-25 10t-10 25q0 71 -21.5 125.5t-53 85.5t-73.5 51t-78 26.5t-71 6.5q-38 0 -73.5 -6.5t-75 -25t-68.5 -47.5t-48 -79.5t-19 -115.5v-291h463 q13 0 22.5 -9.5t9.5 -23.5t-9.5 -23.5t-22.5 -9.5h-463v-663h630q15 0 26 -11t11 -26t-11 -26t-26 -11h-700v737h-80q-13 0 -23 9.5t-10 23.5z" />
<glyph unicode="&#xa4;" d="M143 551l23 65h158v222h-181l23 67h158v201q0 33 6 67.5t20 76.5t41.5 78.5t65.5 67t97 48.5t132 18q85 0 151.5 -26t104 -65t62 -90.5t32.5 -95.5t8 -87q0 -13 -10 -23t-24 -10t-23.5 9.5t-9.5 23.5v2q0 71 -21 125.5t-52 85t-73 49.5t-76 25t-69 6q-34 0 -68.5 -6 t-76 -25t-72.5 -49.5t-52.5 -85t-21.5 -125.5v-193h447l-25 -67h-422v-222h385l-22 -65h-363v-182q0 -71 21.5 -125.5t52.5 -85t72.5 -49.5t76 -25t68.5 -6q35 0 69 6t76 25t73 49.5t52 85.5t21 127q0 14 10 24.5t23 10.5t23.5 -10.5t10.5 -24.5q0 -43 -8.5 -87.5t-33 -96.5 t-63.5 -91t-106.5 -65.5t-154.5 -26.5q-85 0 -150.5 26.5t-103 65.5t-61 90.5t-31.5 95t-8 85.5v182h-181z" />
<glyph unicode="&#xa5;" d="M215 1419q-6 13 0.5 28t20.5 21q18 7 31.5 0.5t19.5 -20.5l327 -821l326 821q6 14 21 20t30 0t21 -20t0 -29l-336 -817h297q13 0 24 -11t11 -24t-10.5 -22.5t-24.5 -9.5h-324v-226h324q13 0 24 -10.5t11 -24.5q0 -13 -10.5 -22.5t-24.5 -9.5h-324v-217q0 -15 -11 -25 t-26 -10t-24.5 10t-9.5 25v217h-324q-14 0 -23.5 9.5t-9.5 22.5q0 14 10 24.5t23 10.5h324v226h-324q-14 0 -23.5 9.5t-9.5 22.5q0 14 10 24.5t23 10.5h297z" />
<glyph unicode="&#xa6;" d="M582 -39v594q0 14 9.5 23.5t22.5 9.5q14 0 23.5 -10t9.5 -23v-594q0 -13 -9.5 -23t-23.5 -10q-13 0 -22.5 9.5t-9.5 23.5zM582 903v594q0 14 9.5 23.5t22.5 9.5q14 0 23.5 -10t9.5 -23v-594q0 -13 -9.5 -23t-23.5 -10q-13 0 -22.5 9.5t-9.5 23.5z" />
<glyph unicode="&#xa7;" d="M238 303q0 15 10.5 26t25.5 11t26 -11t11 -26q3 -217 299 -217q48 0 85 3.5t80.5 16.5t72 35.5t48 64.5t19.5 99q0 62 -37 111.5t-106 70.5q-48 14 -171.5 49.5t-184.5 53.5q-74 24 -120 82t-46 137q0 117 76 190q-76 66 -76 170q0 73 28 127.5t77.5 86t111 46.5 t135.5 15q171 0 269.5 -73t101.5 -216v-4q0 -15 -11 -25t-26 -10t-25 10t-10 25q-3 111 -84 166t-219 55q-276 0 -276 -203q0 -117 118 -153q297 -87 357 -105q92 -27 142 -89.5t50 -155.5q0 -122 -63 -191q63 -66 63 -170q0 -297 -379 -297q-171 0 -271 75.5t-101 219.5z M322 809q0 -118 118 -154q12 -3 150.5 -43t206.5 -61q38 -11 71 -31q47 53 47 146q0 62 -37 111.5t-106 70.5q-52 15 -174.5 49.5t-181.5 52.5q-8 2 -27 11q-67 -51 -67 -152z" />
<glyph unicode="&#xa8;" d="M338 1317v147h111v-147h-111zM778 1319v145h111v-145h-111z" />
<glyph unicode="&#xa9;" d="M102 729q0 138 67.5 254.5t183.5 184t253 67.5q138 0 254.5 -67.5t184 -184t67.5 -254.5t-67.5 -255t-184 -185t-254.5 -68q-137 0 -253 68t-183.5 185t-67.5 255zM172 729q0 -181 127.5 -311.5t306.5 -130.5q119 0 220 60t159.5 162t58.5 220t-58.5 220t-159.5 162 t-220 60q-179 0 -306.5 -130.5t-127.5 -311.5zM444 590v276q0 17 3.5 35t14 39t27 37.5t45 27.5t64.5 11q44 0 76 -16t47.5 -41.5t22 -49t6.5 -45.5v-35h-62v35q0 50 -27.5 69t-62.5 19q-20 0 -38.5 -5.5t-36 -26.5t-17.5 -56v-272q0 -28 9.5 -47.5t25.5 -28t29.5 -11.5 t27.5 -3q90 0 90 90v53h62v-55q0 -17 -3.5 -35.5t-14 -40t-27 -38t-45 -27.5t-64.5 -11q-44 0 -76 16t-47.5 41.5t-22 49t-6.5 45.5z" />
<glyph unicode="&#xaa;" d="M360 977q0 88 60 136t158 48h229v96q0 91 -46.5 129.5t-131.5 38.5q-175 0 -178 -153q0 -12 -9.5 -20.5t-21.5 -8.5q-13 0 -22 8.5t-9 20.5q1 56 24 98.5t59 66t75 35t80 11.5q102 0 170.5 -53.5t68.5 -167.5v-471q0 -12 -8 -20.5t-20 -8.5t-21.5 8.5t-9.5 20.5v63 q-32 -45 -90 -68.5t-119 -23.5q-49 0 -90.5 12.5t-75 37t-53 67t-19.5 98.5zM422 977q0 -89 48 -123.5t132 -34.5q86 0 145.5 44.5t59.5 131.5v115h-227q-158 0 -158 -133z" />
<glyph unicode="&#xab;" d="M238 549l278 278q9 9 23.5 9t23.5 -9t9 -23.5t-9 -23.5l-233 -231l233 -234q9 -9 9 -23.5t-9 -23.5t-23.5 -9t-23.5 9zM655 549l279 278q9 9 23.5 9t23.5 -9t9 -23.5t-9 -23.5l-233 -231l233 -234q9 -9 9 -23.5t-9 -23.5t-23.5 -9t-23.5 9z" />
<glyph unicode="&#xac;" />
<glyph unicode="&#xad;" d="M326 553q0 14 9.5 23.5t22.5 9.5h510q14 0 23.5 -10t9.5 -23t-9.5 -23t-23.5 -10h-510q-13 0 -22.5 9.5t-9.5 23.5z" />
<glyph unicode="&#xae;" d="M102 729q0 138 67.5 254.5t184 184t254.5 67.5t254 -67.5t183 -184t67 -254.5q0 -211 -147 -359.5t-357 -148.5q-138 0 -254.5 68t-184 185t-67.5 255zM172 729q0 -182 127.5 -313t308.5 -131q118 0 218.5 60t159 162.5t58.5 221.5t-58.5 221.5t-159 163t-218.5 60.5 q-119 0 -219.5 -60.5t-158.5 -163t-58 -221.5zM463 440v564h168q45 0 77 -16t47 -41.5t21 -48t6 -44.5v-35q0 -44 -29 -89t-98 -62q19 -36 59 -114t60 -114h-72l-114 228h-64v-228h-61zM524 729h109q31 0 58.5 20t27.5 70v31q0 36 -16.5 57.5t-34 27t-37.5 5.5h-107v-211z " />
<glyph unicode="&#xaf;" d="M313 1317q0 13 9.5 23t23.5 10h537q13 0 22.5 -9.5t9.5 -23.5t-9.5 -23.5t-22.5 -9.5h-537q-14 0 -23.5 10t-9.5 23z" />
<glyph unicode="&#xb0;" d="M369 1233q0 99 72 171.5t171 72.5q101 0 173.5 -72t72.5 -172t-72.5 -173t-173.5 -73q-99 0 -171 73t-72 173zM424 1233q0 -79 55 -134t133 -55q79 0 135 55t56 134q0 78 -56.5 132t-134.5 54t-133 -54t-55 -132z" />
<glyph unicode="&#xb1;" d="M195 590q0 14 9.5 23.5t22.5 9.5h351v344q0 13 9 22.5t23 9.5t23.5 -9.5t9.5 -22.5v-344h356q13 0 23 -9.5t10 -23.5t-10 -23.5t-23 -9.5h-356v-371q0 -13 -9.5 -22.5t-23.5 -9.5t-23 9t-9 23v371h-351q-13 0 -22.5 9.5t-9.5 23.5zM197 53q0 11 8 19t18 8h781q10 0 18 -8 t8 -19t-8 -18.5t-18 -7.5h-781q-11 0 -18.5 7.5t-7.5 18.5z" />
<glyph unicode="&#xb4;" d="M506 1241l127 264h88l-158 -264h-57z" />
<glyph unicode="&#xb6;" d="M229 1139q0 160 89.5 239.5t259.5 79.5h419v-1431l-67 -2v1378h-264v-1378h-68v817q-171 0 -270 84.5t-99 212.5z" />
<glyph unicode="&#xb7;" d="M543 483v142h141v-142h-141z" />
<glyph unicode="&#xb8;" d="M522 -418l121 254h64l-101 -254h-84z" />
<glyph unicode="&#xba;" d="M373 1006v233q0 111 67 177.5t181 66.5q115 0 182 -65.5t67 -178.5v-233q0 -112 -67.5 -178t-181.5 -66q-116 0 -182 64.5t-66 179.5zM438 1006q0 -35 8 -64.5t27 -57t56.5 -43.5t91.5 -16q85 0 133.5 48.5t48.5 132.5v233q0 33 -8 62t-26.5 56.5t-56.5 43.5t-91 16 q-85 0 -134 -48t-49 -130v-233z" />
<glyph unicode="&#xbb;" d="M239 291.5q0 14.5 9 23.5l233 234l-233 231q-9 9 -9 23.5t9 23.5t23.5 9t23.5 -9l278 -278l-278 -281q-9 -9 -23.5 -9t-23.5 9t-9 23.5zM657 291.5q0 14.5 9 23.5l233 234l-233 231q-9 9 -9 23.5t9 23.5t23.5 9t23.5 -9l278 -278l-278 -281q-9 -9 -23.5 -9t-23.5 9 t-9 23.5z" />
<glyph unicode="&#xbf;" d="M231 39q0 56 14 104.5t32 79.5t47.5 60t48 42.5t45.5 30.5q35 23 50.5 33t43 31t40 35t30.5 37.5t25.5 46t13.5 53.5t6 67v74q0 15 11 25t26 10t24.5 -10t9.5 -25v-67q0 -220 -184 -328q-40 -25 -57.5 -36.5t-48.5 -34.5t-45.5 -42t-31.5 -46.5t-23.5 -60.5t-6.5 -73 q0 -149 82.5 -230t230.5 -81q27 0 55.5 4t66 13.5t69.5 29t60 46.5t44.5 71t16.5 98q0 15 10.5 26t24.5 11q15 0 25.5 -11t10.5 -26v-6q0 -37 -12.5 -79t-42 -86.5t-72 -79.5t-109.5 -58t-147 -23q-170 0 -276.5 104t-106.5 271zM594 969v133h131v-133h-131z" />
<glyph unicode="&#xc0;" d="M154 43l329 1405h258l334 -1407q4 -16 -3.5 -28t-20.5 -15q-15 -3 -28.5 4t-16.5 23l-105 426h-573l-105 -426q-4 -16 -17 -23t-28 -4t-21.5 15.5t-2.5 29.5zM342 522h543l-193 856h-155zM481 1888h88l129 -262h-59z" />
<glyph unicode="&#xc1;" d="M154 43l329 1405h258l334 -1407q4 -16 -3.5 -28t-20.5 -15q-15 -3 -28.5 4t-16.5 23l-105 426h-573l-105 -426q-4 -16 -17 -23t-28 -4t-21.5 15.5t-2.5 29.5zM342 522h543l-193 856h-155zM502 1624l127 264h88l-158 -264h-57z" />
<glyph unicode="&#xc2;" d="M154 43l329 1405h258l334 -1407q4 -16 -3.5 -28t-20.5 -15q-15 -3 -28.5 4t-16.5 23l-105 426h-573l-105 -426q-4 -16 -17 -23t-28 -4t-21.5 15.5t-2.5 29.5zM342 522h543l-193 856h-155zM408 1622q-20 20 0 43l180 197h53l180 -195q9 -9 9 -21.5t-9 -21.5t-22.5 -8.5 t-22.5 10.5l-162 174l-163 -178q-9 -9 -21.5 -9t-21.5 9z" />
<glyph unicode="&#xc3;" d="M154 43l329 1405h258l334 -1407q4 -16 -3.5 -28t-20.5 -15q-15 -3 -28.5 4t-16.5 23l-105 426h-573l-105 -426q-4 -16 -17 -23t-28 -4t-21.5 15.5t-2.5 29.5zM328 1657q-18 22 2 39q49 47 84 62.5t69 15.5q37 0 64 -11t69 -37q72 -45 127 -45q58 0 119 56q9 7 20.5 7 t18.5 -7q8 -9 7 -21.5t-11 -21.5q-89 -74 -152 -74q-58 0 -131 45q-68 38 -100 44q-15 3 -29 3q-56 0 -112 -51q-25 -25 -45 -4zM342 522h543l-193 856h-155z" />
<glyph unicode="&#xc4;" d="M154 43l329 1405h258l334 -1407q4 -16 -3.5 -28t-20.5 -15q-15 -3 -28.5 4t-16.5 23l-105 426h-573l-105 -426q-4 -16 -17 -23t-28 -4t-21.5 15.5t-2.5 29.5zM336 1651v145h110v-145h-110zM342 522h543l-193 856h-155zM776 1651v145h111v-145h-111z" />
<glyph unicode="&#xc5;" d="M154 43l329 1405h258l334 -1407q4 -16 -3.5 -28t-20.5 -15q-15 -3 -28.5 4t-16.5 23l-105 426h-573l-105 -426q-4 -16 -17 -23t-28 -4t-21.5 15.5t-2.5 29.5zM342 522h543l-193 856h-155zM414 1776q0 78 55 134t133 56q80 0 136.5 -55.5t56.5 -134.5q0 -78 -57.5 -134.5 t-135.5 -56.5t-133 56.5t-55 134.5zM469 1776q0 -56 39 -96t94 -40q57 0 97 40t40 96q0 57 -40 96t-97 39q-56 0 -94.5 -39t-38.5 -96z" />
<glyph unicode="&#xc6;" d="M68 43l329 1405h729q14 0 24.5 -11t10.5 -24t-10.5 -24t-24.5 -11h-436v-563h387q13 0 24 -10.5t11 -24.5t-11 -24.5t-24 -10.5h-387v-651h436q14 0 24.5 -11t10.5 -24t-10.5 -23.5t-24.5 -10.5h-510v426h-374l-105 -426q-9 -33 -45 -27q-33 7 -24 45zM256 522h360v856 h-165z" />
<glyph unicode="&#xc7;" d="M231 369v737q0 38 10.5 81.5t38 93.5t69 89t111 65.5t156.5 26.5q83 0 150.5 -24.5t108.5 -62.5t68.5 -87t38.5 -93.5t11 -86.5q0 -13 -10.5 -23t-24.5 -10q-13 0 -22.5 9.5t-9.5 23.5q-1 70 -24.5 123.5t-57.5 83.5t-78.5 48.5t-80 24t-69.5 5.5t-70 -5.5t-81.5 -24.5 t-79.5 -49t-58 -85t-24 -127v-733q0 -72 24 -127t58 -85t79.5 -49t81.5 -24.5t70 -5.5t69.5 6t80.5 25t79 49.5t57.5 85.5t23.5 127q0 15 9.5 26t22.5 11q15 0 26 -11t11 -26q0 -41 -10.5 -85.5t-38.5 -95.5t-69.5 -91t-111.5 -66.5t-157 -26.5q-85 0 -153.5 26.5t-109 66 t-67.5 90.5t-37 95.5t-10 84.5zM461 -242l121 254h63l-102 -254h-82z" />
<glyph unicode="&#xc8;" d="M231 25v1423h730q13 0 23.5 -10.5t10.5 -24.5t-10.5 -24.5t-23.5 -10.5h-658v-563h608q13 0 24 -10.5t11 -24.5t-11 -24.5t-24 -10.5h-606v-651h656q13 0 23.5 -10.5t10.5 -24.5q0 -13 -10.5 -23.5t-23.5 -10.5h-730zM487 1896h88l130 -262h-60z" />
<glyph unicode="&#xc9;" d="M231 25v1423h730q13 0 23.5 -10.5t10.5 -24.5t-10.5 -24.5t-23.5 -10.5h-658v-563h608q13 0 24 -10.5t11 -24.5t-11 -24.5t-24 -10.5h-606v-651h656q13 0 23.5 -10.5t10.5 -24.5q0 -13 -10.5 -23.5t-23.5 -10.5h-730zM483 1610l129 262h88l-157 -262h-60z" />
<glyph unicode="&#xca;" d="M231 25v1423h730q13 0 23.5 -10.5t10.5 -24.5t-10.5 -24.5t-23.5 -10.5h-658v-563h608q13 0 24 -10.5t11 -24.5t-11 -24.5t-24 -10.5h-606v-651h656q13 0 23.5 -10.5t10.5 -24.5q0 -13 -10.5 -23.5t-23.5 -10.5h-730zM406 1622q-20 20 0 43l180 197h53l180 -195 q9 -9 9 -21.5t-9 -21.5t-22.5 -8.5t-22.5 10.5l-162 174l-163 -178q-9 -9 -21.5 -9t-21.5 9z" />
<glyph unicode="&#xcb;" d="M231 25v1423h730q13 0 23.5 -10.5t10.5 -24.5t-10.5 -24.5t-23.5 -10.5h-658v-563h608q13 0 24 -10.5t11 -24.5t-11 -24.5t-24 -10.5h-606v-651h656q13 0 23.5 -10.5t10.5 -24.5q0 -13 -10.5 -23.5t-23.5 -10.5h-730zM328 1700v147h110v-147h-110zM768 1702v145h111v-145 h-111z" />
<glyph unicode="&#xcc;" d="M336 59q0 15 10 26t25 11h207v1280h-207q-15 0 -25 10t-10 25t10 26t25 11h4h475h4q15 0 26 -11t11 -26t-11 -25t-26 -10h-207v-1280h203h4q15 0 26 -11t11 -26t-11 -24.5t-26 -9.5h-483q-15 0 -25 9.5t-10 24.5zM469 1888h88l129 -262h-59z" />
<glyph unicode="&#xcd;" d="M336 59q0 15 10 26t25 11h207v1280h-207q-15 0 -25 10t-10 25t10 26t25 11h4h475h4q15 0 26 -11t11 -26t-11 -25t-26 -10h-207v-1280h203h4q15 0 26 -11t11 -26t-11 -24.5t-26 -9.5h-483q-15 0 -25 9.5t-10 24.5zM500 1624l129 264h88l-158 -264h-59z" />
<glyph unicode="&#xce;" d="M336 59q0 15 10 26t25 11h207v1280h-207q-15 0 -25 10t-10 25t10 26t25 11h4h475h4q15 0 26 -11t11 -26t-11 -25t-26 -10h-207v-1280h203h4q15 0 26 -11t11 -26t-11 -24.5t-26 -9.5h-483q-15 0 -25 9.5t-10 24.5zM408 1622q-20 20 0 43l180 197h53l180 -195q9 -9 9 -21.5 t-9 -21.5t-22.5 -8.5t-22.5 10.5l-162 174l-163 -178q-9 -9 -21.5 -9t-21.5 9z" />
<glyph unicode="&#xcf;" d="M336 59q0 15 10 26t25 11h207v1280h-207q-15 0 -25 10t-10 25t10 26t25 11h4h475h4q15 0 26 -11t11 -26t-11 -25t-26 -10h-207v-1280h203h4q15 0 26 -11t11 -26t-11 -24.5t-26 -9.5h-483q-15 0 -25 9.5t-10 24.5zM338 1700v147h111v-147h-111zM778 1702v145h111v-145 h-111z" />
<glyph unicode="&#xd0;" d="M14 776q0 14 10 23.5t23 9.5h182v641h404q86 0 153.5 -26t106 -65t63 -89.5t33 -93t8.5 -82.5v-707q0 -42 -8 -85.5t-32 -94.5t-62 -90t-103.5 -65.5t-150.5 -26.5h-412v718h-182q-13 0 -23 9.5t-10 23.5zM301 96h336q35 0 69 6t75 25.5t71.5 50t51 85.5t20.5 126l2 698 q0 71 -21.5 125.5t-53 85t-73.5 49.5t-76.5 25t-68.5 6h-332v-569h256q13 0 23 -9.5t10 -23.5t-10 -23.5t-23 -9.5h-256v-647z" />
<glyph unicode="&#xd1;" d="M246 23v1425h168l448 -1360h47v1360q0 15 11 26t26 11t26 -11t11 -26v-1425h-174l-442 1347h-48v-1347q0 -15 -10.5 -26t-25.5 -11t-26 11t-11 26zM348 1657q-18 22 2 39q49 47 84.5 62.5t69.5 15.5q37 0 64 -11t69 -37q72 -45 127 -45q58 0 119 56q9 7 20 7t19 -7 q8 -9 7 -21.5t-11 -21.5q-89 -74 -152 -74q-58 0 -131 45q-3 2 -8 5q-69 38 -109 41q-6 1 -12 1q-57 0 -113 -51q-25 -25 -45 -4z" />
<glyph unicode="&#xd2;" d="M231 369v737q0 38 10 81.5t37.5 93.5t68.5 89t110.5 65.5t156.5 26.5q85 0 154 -26.5t110.5 -66t69.5 -89.5t38.5 -93.5t10.5 -82.5v-737q0 -39 -10.5 -83.5t-39 -95t-70.5 -90t-112.5 -66t-158.5 -26.5q-85 0 -153 26.5t-108.5 66t-67 90.5t-36.5 95.5t-10 84.5z M303 369q0 -60 16 -108.5t43.5 -79t59.5 -52t69 -32t66 -15t57 -4.5q23 0 47.5 3t56 11t59.5 21.5t56 36t48 52t32.5 72.5t12.5 95v733q0 52 -12.5 95t-32.5 72.5t-48 52t-56 36t-59.5 21.5t-56 11t-47.5 3q-28 0 -57 -4.5t-66 -15t-69 -32t-59.5 -52t-43.5 -79t-16 -108.5 v-733zM473 1888h88l129 -262h-59z" />
<glyph unicode="&#xd3;" d="M231 369v737q0 38 10 81.5t37.5 93.5t69 89t111 65.5t157.5 26.5q85 0 154 -26.5t110 -66t68.5 -89.5t38 -93.5t10.5 -82.5v-737q0 -39 -10.5 -83.5t-39 -95t-70.5 -90t-112 -66t-157 -26.5q-85 0 -153.5 26.5t-109 66t-67.5 90.5t-37 95.5t-10 84.5zM303 369 q0 -72 24 -127t58 -85t79.5 -49t81.5 -24.5t70 -5.5t69.5 6t80.5 25t79 49t57.5 85t23.5 126v733q0 71 -23.5 126t-57.5 85t-79 49t-80.5 25t-69.5 6t-70 -5.5t-81.5 -24.5t-79.5 -49t-58 -85t-24 -127v-733zM487 1624l129 264h89l-158 -264h-60z" />
<glyph unicode="&#xd4;" d="M231 369v737q0 38 10.5 81.5t38 93.5t69 89t111 65.5t156.5 26.5q85 0 154 -26.5t110 -66t68.5 -89.5t38 -93.5t10.5 -82.5v-737q0 -39 -10.5 -83.5t-39 -95t-70.5 -90t-112 -66t-157 -26.5q-85 0 -153.5 26.5t-109 66t-67.5 90.5t-37 95.5t-10 84.5zM303 369 q0 -72 24 -127t58 -85t79.5 -49t81.5 -24.5t70 -5.5t69.5 6t80.5 25t79 49t57.5 85t23.5 126v733q0 71 -23.5 126t-57.5 85t-79 49t-80.5 25t-69.5 6t-70 -5.5t-81.5 -24.5t-79.5 -49t-58 -85t-24 -127v-733zM408 1622q-20 20 0 43l180 197h53l180 -195q9 -9 9 -21.5 t-9 -21.5t-22.5 -8.5t-22.5 10.5l-162 174l-163 -178q-9 -9 -21.5 -9t-21.5 9z" />
<glyph unicode="&#xd5;" d="M231 369v737q0 38 10 81.5t37.5 93.5t69 89t111 65.5t157.5 26.5q85 0 154 -26.5t110 -66t68.5 -89.5t38 -93.5t10.5 -82.5v-737q0 -39 -10.5 -83.5t-39 -95t-70.5 -90t-112 -66t-157 -26.5q-85 0 -153.5 26.5t-109 66t-67.5 90.5t-37 95.5t-10 84.5zM303 369 q0 -72 24 -127t58 -85t79.5 -49t81.5 -24.5t70 -5.5t69.5 6t80.5 25t79 49t57.5 85t23.5 126v733q0 71 -23.5 126t-57.5 85t-79 49t-80.5 25t-69.5 6t-70 -5.5t-81.5 -24.5t-79.5 -49t-58 -85t-24 -127v-733zM328 1657q-18 22 2 39q49 47 84 62.5t69 15.5q37 0 64 -11 t69 -37q72 -45 127 -45q58 0 119 56q9 7 20.5 7t18.5 -7q8 -9 7 -21.5t-11 -21.5q-89 -74 -152 -74q-58 0 -131 45q-68 38 -100 44q-15 3 -29 3q-56 0 -112 -51q-25 -25 -45 -4z" />
<glyph unicode="&#xd6;" d="M231 369v737q0 38 10.5 81.5t38 93.5t69 89t111 65.5t156.5 26.5q85 0 154 -26.5t110 -66t68.5 -89.5t38 -93.5t10.5 -82.5v-737q0 -39 -10.5 -83.5t-39 -95t-70.5 -90t-112 -66t-157 -26.5q-85 0 -153.5 26.5t-109 66t-67.5 90.5t-37 95.5t-10 84.5zM303 369 q0 -72 24 -127t58 -85t79.5 -49t81.5 -24.5t70 -5.5t69.5 6t80.5 25t79 49t57.5 85t23.5 126v733q0 71 -23.5 126t-57.5 85t-79 49t-80.5 25t-69.5 6t-70 -5.5t-81.5 -24.5t-79.5 -49t-58 -85t-24 -127v-733zM344 1649v145h111v-145h-111zM784 1649v145h111v-145h-111z" />
<glyph unicode="&#xd7;" d="M280 251.5q0 13.5 11 22.5l276 279l-276 278q-11 9 -11 23t11 23q9 11 22.5 11t22.5 -11l278 -277l279 277q9 11 22.5 11t22.5 -11q10 -9 10 -23t-10 -23l-276 -278l276 -279q10 -9 10 -22.5t-10 -22.5q-9 -11 -23 -10.5t-26 12.5l-275 275l-278 -277q-9 -11 -22.5 -11 t-22.5 11q-11 9 -11 22.5z" />
<glyph unicode="&#xd8;" d="M229 369v737q0 38 10.5 81.5t38 93.5t69 89t111 65.5t156.5 26.5q105 0 185 -41l47 144q4 13 18.5 20t26.5 2q14 -5 20 -17.5t2 -27.5l-51 -160q68 -55 101.5 -133.5t33.5 -144.5v-737q0 -39 -11 -83.5t-39.5 -95t-70.5 -90t-112.5 -66t-157.5 -26.5q-104 0 -180 37 l-43 -131q-9 -30 -45 -23q-12 3 -19.5 16.5t-3.5 28.5l47 148q-69 56 -101 136t-32 151zM301 369q0 -136 86 -215l391 1202q-75 37 -164 37q-34 0 -70 -5.5t-81.5 -24.5t-79.5 -49t-58 -85t-24 -127v-733zM449 115q75 -37 165 -37q34 0 69.5 6t80.5 25t79 49t57.5 85 t23.5 126l2 733q0 138 -86 213z" />
<glyph unicode="&#xd9;" d="M229 369v1079q0 15 10 26t25 11t26 -11t11 -26v-1079q0 -72 24 -127t58 -85t79.5 -49t81.5 -24.5t70 -5.5q23 0 47.5 3t56 11t59.5 21.5t56 36t48 52t32.5 72.5t12.5 95v1079q0 15 10 26t25 11t25.5 -11t10.5 -26v-1081q0 -39 -11 -83.5t-39.5 -95t-70.5 -90t-112.5 -66 t-157.5 -26.5q-85 0 -153.5 26.5t-109 66t-67.5 90.5t-37 95.5t-10 84.5zM475 1888h88l129 -262h-59z" />
<glyph unicode="&#xda;" d="M229 369v1079q0 15 10 26t25 11t26 -11t11 -26v-1079q0 -72 24 -127t58 -85t79.5 -49t81.5 -24.5t70 -5.5q23 0 47.5 3t56 11t59.5 21.5t56 36t48 52t32.5 72.5t12.5 95v1079q0 15 10 26t25 11t25.5 -11t10.5 -26v-1081q0 -39 -11 -83.5t-39.5 -95t-70.5 -90t-112.5 -66 t-157.5 -26.5q-85 0 -153.5 26.5t-109 66t-67.5 90.5t-37 95.5t-10 84.5zM500 1624l129 264h88l-158 -264h-59z" />
<glyph unicode="&#xdb;" d="M229 369v1079q0 15 10 26t25 11t26 -11t11 -26v-1079q0 -72 24 -127t58 -85t79.5 -49t81.5 -24.5t70 -5.5q23 0 47.5 3t56 11t59.5 21.5t56 36t48 52t32.5 72.5t12.5 95v1079q0 15 10 26t25 11t25.5 -11t10.5 -26v-1081q0 -39 -11 -83.5t-39.5 -95t-70.5 -90t-112.5 -66 t-157.5 -26.5q-85 0 -153.5 26.5t-109 66t-67.5 90.5t-37 95.5t-10 84.5zM408 1622q-20 20 0 43l180 197h53l180 -195q9 -9 9 -21.5t-9 -21.5t-22.5 -8.5t-22.5 10.5l-162 174l-163 -178q-9 -9 -21.5 -9t-21.5 9z" />
<glyph unicode="&#xdc;" d="M229 369v1079q0 15 10 26t25 11t26 -11t11 -26v-1079q0 -72 24 -127t58 -85t79.5 -49t81.5 -24.5t70 -5.5q23 0 47.5 3t56 11t59.5 21.5t56 36t48 52t32.5 72.5t12.5 95v1079q0 15 10 26t25 11t25.5 -11t10.5 -26v-1081q0 -39 -11 -83.5t-39.5 -95t-70.5 -90t-112.5 -66 t-157.5 -26.5q-85 0 -153.5 26.5t-109 66t-67.5 90.5t-37 95.5t-10 84.5zM332 1651v145h110v-145h-110zM772 1651v145h111v-145h-111z" />
<glyph unicode="&#xdd;" d="M215 1419q-6 13 0.5 28t20.5 21q18 7 31.5 0.5t19.5 -20.5l327 -821l326 821q6 14 21 20t30 0t21 -20t0 -29l-363 -884v-510q0 -15 -11 -25t-26 -10t-24.5 10t-9.5 25v512zM526 1618l127 264h88l-157 -264h-58z" />
<glyph unicode="&#xde;" d="M229 37v1429q0 15 11 26t26 11t26 -11t11 -26v-299h330q86 0 153.5 -26t106 -65t63 -89.5t33 -93t8.5 -82.5v-111q0 -42 -8 -85t-32 -94t-62 -90t-103.5 -65t-150.5 -26h-338v-303q0 -15 -11 -26t-26 -11t-26 11t-11 26zM301 410h336q35 0 69 6t75.5 25t72 49.5 t51.5 85.5t21 126v105q0 71 -21.5 125.5t-53 85t-73.5 49.5t-76.5 25t-68.5 6h-332v-688z" />
<glyph unicode="&#xdf;" d="M227 25v1079q0 40 8 82.5t33 93t63.5 89.5t106 65t154.5 26q85 0 150.5 -25t103.5 -61.5t62 -85.5t32 -91t8 -83v-33q0 -86 -44.5 -168t-129.5 -96q58 -13 102 -43.5t67 -64.5t37 -76.5t17.5 -73t3.5 -61.5v-111q0 -42 -8 -85.5t-32 -94.5t-62 -90t-103.5 -65.5 t-150.5 -26.5h-88q-15 0 -25 9.5t-10 24.5t10 26t25 11h84q35 0 69 6t75.5 25.5t72 50t51.5 84.5t21 125v105q0 71 -19 125t-46.5 84t-66 48.5t-71.5 24.5t-68 6h-24v74h22q105 -3 164.5 57t59.5 170v29q0 71 -21.5 124.5t-51.5 82t-72.5 46t-75.5 22t-68 4.5t-69.5 -6 t-76.5 -25t-73 -49.5t-52.5 -85t-21.5 -125.5v-1073q0 -15 -11 -25t-26 -10t-25 10t-10 25z" />
<glyph unicode="&#xe0;" d="M242 369v354q0 166 101 264t271 98q90 0 177.5 -42.5t126.5 -120.5v145q0 14 9.5 24.5t22.5 10.5q14 0 24.5 -11t10.5 -24v-1042q0 -13 -10.5 -23t-24.5 -10q-13 0 -22.5 9.5t-9.5 23.5v147q-94 -168 -304 -168q-173 0 -272.5 98t-99.5 267zM317 369q0 -42 7 -80 t27.5 -77.5t52.5 -67.5t86 -46t124 -18q139 0 220 76t81 213v354q0 53 -13.5 100t-45.5 92t-94 71t-148 26q-140 0 -218.5 -76.5t-78.5 -212.5v-354zM508 1505h88l129 -262h-59z" />
<glyph unicode="&#xe1;" d="M242 369v354q0 166 101 264t271 98q90 0 177.5 -42.5t126.5 -120.5v145q0 14 9.5 24.5t22.5 10.5q14 0 24.5 -11t10.5 -24v-1042q0 -13 -10.5 -23t-24.5 -10q-13 0 -22.5 9.5t-9.5 23.5v147q-94 -168 -304 -168q-173 0 -272.5 98t-99.5 267zM317 369q0 -42 7 -80 t27.5 -77.5t52.5 -67.5t86 -46t124 -18q139 0 220 76t81 213v354q0 53 -13.5 100t-45.5 92t-94 71t-148 26q-140 0 -218.5 -76.5t-78.5 -212.5v-354zM526 1241l129 264h88l-157 -264h-60z" />
<glyph unicode="&#xe2;" d="M242 369v354q0 166 101 264t271 98q90 0 177.5 -42.5t126.5 -120.5v145q0 14 9.5 24.5t22.5 10.5q14 0 24.5 -11t10.5 -24v-1042q0 -13 -10.5 -23t-24.5 -10q-13 0 -22.5 9.5t-9.5 23.5v147q-94 -168 -304 -168q-173 0 -272.5 98t-99.5 267zM317 369q0 -42 7 -80 t27.5 -77.5t52.5 -67.5t86 -46t124 -18q139 0 220 76t81 213v354q0 53 -13.5 100t-45.5 92t-94 71t-148 26q-140 0 -218.5 -76.5t-78.5 -212.5v-354zM408 1253q-20 20 0 43l180 197h53l180 -195q9 -9 9 -21.5t-9 -21.5t-22.5 -8.5t-22.5 10.5l-162 175l-163 -179 q-9 -9 -21.5 -9t-21.5 9z" />
<glyph unicode="&#xe3;" d="M242 369v354q0 166 101 264t271 98q90 0 177.5 -42.5t126.5 -120.5v145q0 14 9.5 24.5t22.5 10.5q14 0 24.5 -11t10.5 -24v-1042q0 -13 -10.5 -23t-24.5 -10q-13 0 -22.5 9.5t-9.5 23.5v147q-94 -168 -304 -168q-173 0 -272.5 98t-99.5 267zM317 369q0 -42 7 -80 t27.5 -77.5t52.5 -67.5t86 -46t124 -18q139 0 220 76t81 213v354q0 53 -13.5 100t-45.5 92t-94 71t-148 26q-140 0 -218.5 -76.5t-78.5 -212.5v-354zM334 1307q-18 22 2 39q49 47 83.5 62t69.5 15q37 0 65 -10.5t69 -36.5q72 -45 127 -45q58 0 118 55q9 8 20.5 8t18.5 -8 q8 -9 7 -21.5t-11 -21.5q-88 -73 -151 -73q-58 0 -131 45q-68 38 -100 44q-15 3 -29 3q-57 0 -113 -51q-25 -25 -45 -4z" />
<glyph unicode="&#xe4;" d="M242 369v354q0 166 101 264t271 98q90 0 177.5 -42.5t126.5 -120.5v145q0 14 9.5 24.5t22.5 10.5q14 0 24.5 -11t10.5 -24v-1042q0 -13 -10.5 -23t-24.5 -10q-13 0 -22.5 9.5t-9.5 23.5v147q-94 -168 -304 -168q-173 0 -272.5 98t-99.5 267zM317 369q0 -42 7 -80 t27.5 -77.5t52.5 -67.5t86 -46t124 -18q139 0 220 76t81 213v354q0 53 -13.5 100t-45.5 92t-94 71t-148 26q-140 0 -218.5 -76.5t-78.5 -212.5v-354zM356 1317v147h111v-147h-111zM797 1317v147h110v-147h-110z" />
<glyph unicode="&#xe5;" d="M242 369v354q0 166 101 264t271 98q90 0 177.5 -42.5t126.5 -120.5v145q0 14 9.5 24.5t22.5 10.5q14 0 24.5 -11t10.5 -24v-1042q0 -13 -10.5 -23t-24.5 -10q-13 0 -22.5 9.5t-9.5 23.5v147q-94 -168 -304 -168q-173 0 -272.5 98t-99.5 267zM317 369q0 -42 7 -80 t27.5 -77.5t52.5 -67.5t86 -46t124 -18q139 0 220 76t81 213v354q0 53 -13.5 100t-45.5 92t-94 71t-148 26q-140 0 -218.5 -76.5t-78.5 -212.5v-354zM442 1407q0 78 56.5 134t134.5 56t134 -55.5t56 -134.5q0 -78 -56 -135.5t-134 -57.5t-134.5 57.5t-56.5 135.5zM498 1407 q0 -56 39.5 -96.5t95.5 -40.5q55 0 95 40.5t40 96.5q0 57 -39.5 96t-95.5 39q-57 0 -96 -39.5t-39 -95.5z" />
<glyph unicode="&#xe6;" d="M23 330q0 118 82 199t219 81h247v140q0 264 -217 264q-97 0 -160 -53t-69 -168q0 -13 -11.5 -24t-25.5 -11t-25.5 11t-11.5 24q7 146 91 219t212 73q90 0 156.5 -40t101.5 -119q38 77 109.5 118t167.5 41q146 0 230.5 -94t84.5 -262v-192h-559v-168q0 -289 244 -289 q112 0 172.5 67.5t68.5 194.5q0 14 11 25.5t26 11.5t25 -10t10 -29q0 -60 -19.5 -118t-56 -107.5t-98.5 -80t-139 -30.5q-100 0 -173 45t-110 127q-40 -73 -109.5 -121.5t-164.5 -48.5q-139 0 -224 92t-85 232zM94 330q0 -113 65 -183.5t177 -70.5q96 0 164.5 68t68.5 184 v213h-241q-108 0 -171 -58.5t-63 -152.5zM645 610h485v119q0 42 -5.5 79t-22 76t-42.5 66t-70 44.5t-101 17.5q-121 0 -182.5 -72.5t-61.5 -210.5v-119z" />
<glyph unicode="&#xe7;" d="M244 369v354q0 166 100 264t270 98q163 0 263 -90t106 -245q0 -14 -11 -24.5t-28 -10.5q-15 0 -25 10t-10 25q-3 51 -18.5 94t-47 82.5t-90.5 62.5t-139 23q-140 0 -218.5 -76.5t-78.5 -212.5v-354q0 -42 7 -80t27.5 -77.5t52.5 -67.5t86 -46t124 -18q132 0 210 69 t85 193q0 14 11 25.5t26 11.5q17 0 28 -11.5t9 -25.5q-9 -157 -108.5 -247.5t-260.5 -90.5q-173 0 -271.5 98t-98.5 267zM475 -250l121 254h63l-100 -254h-84z" />
<glyph unicode="&#xe8;" d="M244 369v354q0 166 100 264t270 98q172 0 270.5 -96.5t98.5 -265.5v-186h-666v-168q0 -42 7 -80t27.5 -77.5t52.5 -67.5t86 -46t124 -18q132 0 210 69t85 193q0 14 11 25.5t26 11.5t26.5 -10.5t10.5 -26.5q-9 -158 -108 -248t-261 -90q-173 0 -271.5 98t-98.5 267z M317 612h594l-2 111q0 42 -7 80t-27.5 77.5t-52 67.5t-85 46t-123.5 18q-140 0 -218.5 -76.5t-78.5 -212.5v-111zM481 1505h88l129 -262h-59z" />
<glyph unicode="&#xe9;" d="M244 369v354q0 166 100 264t270 98q172 0 270.5 -96.5t98.5 -265.5v-186h-666v-168q0 -42 7 -80t27.5 -77.5t52.5 -67.5t86 -46t124 -18q132 0 210 69t85 193q0 14 11 25.5t26 11.5t26.5 -10.5t10.5 -26.5q-9 -158 -108 -248t-261 -90q-173 0 -271.5 98t-98.5 267z M317 612h594l-2 111q0 42 -7 80t-27.5 77.5t-52 67.5t-85 46t-123.5 18q-140 0 -218.5 -76.5t-78.5 -212.5v-111zM502 1241l129 264h88l-158 -264h-59z" />
<glyph unicode="&#xea;" d="M244 369v354q0 166 100 264t270 98q172 0 270.5 -96.5t98.5 -265.5v-186h-666v-168q0 -42 7 -80t27.5 -77.5t52.5 -67.5t86 -46t124 -18q132 0 210 69t85 193q0 14 11 25.5t26 11.5t26.5 -10.5t10.5 -26.5q-9 -158 -108 -248t-261 -90q-173 0 -271.5 98t-98.5 267z M317 612h594l-2 111q0 42 -7 80t-27.5 77.5t-52 67.5t-85 46t-123.5 18q-140 0 -218.5 -76.5t-78.5 -212.5v-111zM408 1253q-20 20 0 43l180 197h53l180 -195q9 -9 9 -21.5t-9 -21.5t-22.5 -8.5t-22.5 10.5l-162 175l-163 -179q-9 -9 -21.5 -9t-21.5 9z" />
<glyph unicode="&#xeb;" d="M244 369v354q0 166 100 264t270 98q172 0 270.5 -96.5t98.5 -265.5v-186h-666v-168q0 -42 7 -80t27.5 -77.5t52.5 -67.5t86 -46t124 -18q132 0 210 69t85 193q0 14 11 25.5t26 11.5t26.5 -10.5t10.5 -26.5q-9 -158 -108 -248t-261 -90q-173 0 -271.5 98t-98.5 267z M317 612h594l-2 111q0 42 -7 80t-27.5 77.5t-52 67.5t-85 46t-123.5 18q-140 0 -218.5 -76.5t-78.5 -212.5v-111zM334 1317v147h110v-147h-110zM774 1319v145h111v-145h-111z" />
<glyph unicode="&#xec;" d="M240 59q0 14 9.5 23.5t22.5 9.5h306v914h-306q-14 0 -23 9t-9 23t9.5 23.5t22.5 9.5h379v-979h234q13 0 23 -10t10 -23t-9.5 -22.5t-23.5 -9.5h-613q-14 0 -23 9.5t-9 22.5zM434 1505h88l129 -262h-59z" />
<glyph unicode="&#xed;" d="M240 59q0 14 9.5 23.5t22.5 9.5h306v914h-306q-14 0 -23 9t-9 23t9.5 23.5t22.5 9.5h379v-979h234q13 0 23 -10t10 -23t-9.5 -22.5t-23.5 -9.5h-613q-14 0 -23 9.5t-9 22.5zM506 1245l129 262h88l-158 -262h-59z" />
<glyph unicode="&#xee;" d="M240 59q0 14 9.5 23.5t22.5 9.5h306v914h-306q-14 0 -23 9t-9 23t9.5 23.5t22.5 9.5h379v-979h234q13 0 23 -10t10 -23t-9.5 -22.5t-23.5 -9.5h-613q-14 0 -23 9.5t-9 22.5zM391 1253q-20 20 0 43l180 197h54l180 -195q9 -9 9 -21.5t-9 -21.5t-22.5 -8.5t-22.5 10.5 l-162 175l-164 -179q-9 -9 -21.5 -9t-21.5 9z" />
<glyph unicode="&#xef;" d="M240 59q0 14 9.5 23.5t22.5 9.5h306v914h-306q-14 0 -23 9t-9 23t9.5 23.5t22.5 9.5h379v-979h234q13 0 23 -10t10 -23t-9.5 -22.5t-23.5 -9.5h-613q-14 0 -23 9.5t-9 22.5zM338 1309v145h111v-145h-111zM778 1309v145h111v-145h-111z" />
<glyph unicode="&#xf0;" d="M223 356v367q0 170 108 272.5t285 102.5q90 0 177 -38t139 -106v158q0 83 -27.5 144t-74 94.5t-99.5 49t-113 15.5q-13 0 -23.5 11.5t-10.5 25.5q0 15 10 25t24 10h9q165 0 272 -97t107 -274v-760q0 -171 -108 -273.5t-282 -102.5q-181 0 -287 101t-106 275zM297 356 q0 -44 8.5 -84.5t30.5 -82t56.5 -71t92 -48.5t131.5 -19q146 0 231 80.5t85 224.5v367q0 44 -8.5 84t-30.5 80.5t-56.5 70t-91 48t-129.5 18.5q-148 0 -233.5 -79t-85.5 -222v-367z" />
<glyph unicode="&#xf1;" d="M244 27v1038q0 15 10 26t25 11t25.5 -11t10.5 -26v-143q35 75 124.5 119t176.5 44q172 0 269.5 -96.5t97.5 -265.5v-696q0 -15 -11 -25t-26 -10t-25 10t-10 25v696q0 42 -7 80t-27.5 77.5t-52 67.5t-85 46t-123.5 18q-131 0 -216 -79t-85 -206v-700q0 -15 -10.5 -25 t-25.5 -10t-25 10t-10 25zM312 1327.5q1 11.5 10 18.5q49 47 83.5 62t69.5 15q37 0 64.5 -10.5t68.5 -36.5q72 -45 127 -45q59 0 119 55q9 8 20.5 8t18.5 -8q8 -9 7 -21.5t-11 -21.5q-88 -73 -152 -73q-58 0 -131 45q-68 38 -100 44q-15 3 -29 3q-56 0 -112 -51 q-25 -25 -46 -4q-8 9 -7 20.5z" />
<glyph unicode="&#xf2;" d="M244 369v354q0 166 100 264t270 98q172 0 271.5 -97t99.5 -265v-354q0 -166 -100.5 -264.5t-270.5 -98.5q-172 0 -271 97t-99 266zM317 369q0 -54 13 -101t43.5 -92t92 -71.5t148.5 -26.5q139 0 218 77t79 214v354q0 42 -7 80t-27.5 77.5t-52.5 67.5t-86 46t-124 18 q-140 0 -218.5 -76.5t-78.5 -212.5v-354zM487 1505h88l130 -262h-60z" />
<glyph unicode="&#xf3;" d="M244 369v354q0 166 100 264t270 98q172 0 270.5 -96.5t98.5 -265.5v-354q0 -166 -99.5 -264.5t-269.5 -98.5q-173 0 -271.5 97t-98.5 266zM317 369q0 -54 13 -101t43.5 -92t92 -71.5t148.5 -26.5q139 0 218 77t79 214v354q0 42 -7 80t-27.5 77.5t-52.5 67.5t-86 46 t-124 18q-140 0 -218.5 -76.5t-78.5 -212.5v-354zM504 1241l129 264h88l-158 -264h-59z" />
<glyph unicode="&#xf4;" d="M244 369v354q0 166 99.5 264t268.5 98q173 0 272 -96.5t99 -265.5v-354q0 -166 -100.5 -264.5t-270.5 -98.5q-172 0 -270 97t-98 266zM315 369q0 -54 13 -101t43.5 -92t92 -71.5t148.5 -26.5q139 0 218 77t79 214v354q0 42 -7 80t-27.5 77.5t-52.5 67.5t-86 46t-124 18 q-139 0 -218 -76.5t-79 -212.5v-354zM408 1253q-20 20 0 43l180 197h53l180 -195q9 -9 9 -21.5t-9 -21.5t-22.5 -8.5t-22.5 10.5l-162 175l-163 -179q-9 -9 -21.5 -9t-21.5 9z" />
<glyph unicode="&#xf5;" d="M244 369v354q0 166 99.5 264t268.5 98q173 0 272 -96.5t99 -265.5v-354q0 -166 -100.5 -264.5t-270.5 -98.5q-172 0 -270 97t-98 266zM313 1307q-18 22 2 39q49 46 84 61.5t70 15.5q37 0 64.5 -10.5t68.5 -36.5q72 -45 127 -45q59 0 119 55q9 8 20.5 8t18.5 -8 q8 -9 7 -21.5t-11 -21.5q-88 -73 -152 -73q-58 0 -131 45q-68 38 -100 44q-15 3 -29 3q-57 0 -113 -51q-24 -25 -45 -4zM315 369q0 -54 13 -101t43.5 -92t92 -71.5t148.5 -26.5q139 0 218 77t79 214v354q0 42 -7 80t-27.5 77.5t-52.5 67.5t-86 46t-124 18q-139 0 -218 -76.5 t-79 -212.5v-354z" />
<glyph unicode="&#xf6;" d="M244 369v354q0 166 100 264t270 98q172 0 270.5 -96.5t98.5 -265.5v-354q0 -166 -99.5 -264.5t-269.5 -98.5q-173 0 -271.5 97t-98.5 266zM317 369q0 -54 13 -101t43.5 -92t92 -71.5t148.5 -26.5q139 0 218 77t79 214v354q0 42 -7 80t-27.5 77.5t-52.5 67.5t-86 46 t-124 18q-140 0 -218.5 -76.5t-78.5 -212.5v-354zM336 1317v147h110v-147h-110zM776 1319v145h111v-145h-111z" />
<glyph unicode="&#xf7;" d="M238 551q0 12 7 20.5t19 8.5h699q12 0 20 -8.5t8 -20.5t-8 -19.5t-20 -7.5h-699q-26 0 -26 27zM559 170v129h109v-129h-109zM559 807v127h109v-127h-109z" />
<glyph unicode="&#xf8;" d="M246 369v354q0 166 100 264t270 98q114 0 199 -45l103 220q6 13 19.5 18.5t25.5 -0.5q13 -6 17.5 -19t-1.5 -26l-109 -232q115 -95 115 -278v-354q0 -166 -100 -264.5t-269 -98.5q-111 0 -188 39l-117 -252q-6 -15 -20 -21.5t-27 -0.5q-12 6 -16.5 20t2.5 29l121 260 q-125 93 -125 289zM319 369q0 -145 82 -222l383 828q-66 37 -168 37q-140 0 -218.5 -76.5t-78.5 -212.5v-354zM457 109q71 -31 159 -31q138 0 216.5 77.5t78.5 213.5v354q0 135 -71 211z" />
<glyph unicode="&#xf9;" d="M244 369v696q0 15 10 26t25 11t25.5 -11t10.5 -26v-696q0 -42 7 -80t27.5 -77.5t52.5 -67.5t86 -46t124 -18q131 0 215 72.5t84 193.5v719q0 15 10 26t25 11t26 -11t11 -26v-1038q0 -15 -11 -25t-26 -10t-25 10t-10 25v125q-54 -74 -134.5 -110t-164.5 -36 q-173 0 -270.5 97t-97.5 266zM481 1505h90l127 -262h-59z" />
<glyph unicode="&#xfa;" d="M244 369v696q0 15 10 26t25 11t25.5 -11t10.5 -26v-696q0 -42 7 -80t27.5 -77.5t52.5 -67.5t86 -46t124 -18q131 0 215 72.5t84 193.5v719q0 15 10 26t25 11t26 -11t11 -26v-1038q0 -15 -11 -25t-26 -10t-25 10t-10 25v125q-54 -74 -134.5 -110t-164.5 -36 q-173 0 -270.5 97t-97.5 266zM469 1241l129 264h88l-158 -264h-59z" />
<glyph unicode="&#xfb;" d="M244 369v696q0 15 10 26t25 11t25.5 -11t10.5 -26v-696q0 -42 7 -80t27.5 -77.5t52.5 -67.5t86 -46t124 -18q131 0 215 72.5t84 193.5v719q0 15 10 26t25 11t26 -11t11 -26v-1038q0 -15 -11 -25t-26 -10t-25 10t-10 25v125q-54 -74 -134.5 -110t-164.5 -36 q-173 0 -270.5 97t-97.5 266zM408 1253q-20 20 0 43l180 197h53l180 -195q9 -9 9 -21.5t-9 -21.5t-22.5 -8.5t-22.5 10.5l-162 175l-163 -179q-9 -9 -21.5 -9t-21.5 9z" />
<glyph unicode="&#xfc;" d="M244 369v696q0 15 10 26t25 11t25.5 -11t10.5 -26v-696q0 -42 7 -80t27.5 -77.5t52.5 -67.5t86 -46t124 -18q131 0 215 72.5t84 193.5v719q0 15 10 26t25 11t26 -11t11 -26v-1038q0 -15 -11 -25t-26 -10t-25 10t-10 25v125q-54 -74 -134.5 -110t-164.5 -36 q-173 0 -270.5 97t-97.5 266zM324 1309v145h110v-145h-110zM764 1309v145h110v-145h-110z" />
<glyph unicode="&#xfd;" d="M272 1053q-3 14 5.5 28t23.5 17q14 3 28 -5.5t17 -23.5l219 -969h88l228 969q3 15 17 23.5t28 5.5q15 -3 23 -17t5 -28l-309 -1280q-31 -125 -98 -171t-189 -46h-16q-15 0 -26 10.5t-11 25.5t11 26t26 11h25q84 0 138.5 33t74.5 117l57 244h-119zM526 1241l127 264h88 l-157 -264h-58z" />
<glyph unicode="&#xfe;" d="M246 -422v1866q0 15 9 26t24 11t25.5 -11t10.5 -26v-506q40 70 126 108.5t173 38.5q172 0 270.5 -96.5t98.5 -265.5v-354q0 -166 -99.5 -265.5t-269.5 -99.5q-90 0 -170 34.5t-127 111.5v-572q0 -15 -10.5 -26t-25.5 -11t-25 11t-10 26zM317 369q0 -42 7 -80t27.5 -77.5 t52.5 -67.5t86 -46t124 -18q138 0 216.5 76.5t78.5 212.5v354q0 42 -7 80t-27 77.5t-51.5 67.5t-85.5 46t-124 18q-140 0 -218.5 -76.5t-78.5 -212.5v-354z" />
<glyph unicode="&#xff;" d="M272 1053q-3 14 5.5 28t23.5 17q14 3 28 -5.5t17 -23.5l217 -969h92l226 969q3 15 17 23.5t28 5.5q15 -3 23 -17t5 -28l-309 -1280q-31 -125 -98 -171t-189 -46h-16q-15 0 -26 10.5t-11 25.5t11 26t26 11h25q84 0 138.5 33t74.5 117l57 244h-119zM340 1303v145h111v-145 h-111zM780 1303v145h111v-145h-111z" />
<glyph unicode="&#x152;" d="M117 369v737q0 38 10.5 80t38 90t69 85t111 62t156.5 25h575q13 0 24 -11t11 -24t-11 -24t-24 -11h-426v-563h377q14 0 24.5 -10.5t10.5 -24.5t-10.5 -24.5t-24.5 -10.5h-377v-651h426q13 0 24 -11t11 -24t-10.5 -23.5t-24.5 -10.5h-583q-85 0 -153.5 24.5t-109 61.5 t-67.5 85t-37 90.5t-10 82.5zM188 369q0 -72 24.5 -125t58 -80.5t80.5 -43.5t80.5 -20t70.5 -4h76v1282h-76q-29 0 -57 -3t-66.5 -12t-70 -28.5t-60 -48.5t-44.5 -76.5t-16 -107.5v-733z" />
<glyph unicode="&#x153;" d="M12 362v367q0 165 87 260.5t235 95.5q99 0 172.5 -44t111.5 -126q37 82 109.5 126t171.5 44q146 0 230.5 -94t84.5 -262v-192h-559v-175q0 -282 244 -282q108 0 171 68.5t71 193.5q0 14 11 25.5t26 11.5q14 0 24 -10t10 -27q0 -139 -85.5 -238.5t-227.5 -99.5 q-100 0 -172 44.5t-109 127.5q-38 -82 -112 -127t-172 -45q-150 0 -236 96t-86 262zM86 362q0 -137 65 -211.5t183 -74.5q120 0 184 74.5t64 211.5v383q-2 74 -25 131.5t-80 96.5t-143 39q-67 0 -116.5 -23.5t-77.5 -64.5t-41 -89.5t-13 -105.5v-367zM655 612h486v117 q0 54 -10.5 99.5t-35.5 89.5t-75 69t-121 25q-121 0 -182.5 -72.5t-61.5 -210.5v-117z" />
<glyph unicode="&#x178;" d="M215 1419q-6 13 0.5 28.5t20.5 20.5q15 6 30.5 0t20.5 -20l327 -821l326 821q5 14 20.5 20t30.5 0q14 -5 20.5 -20.5t0.5 -28.5l-363 -884v-510q0 -15 -11 -25t-26 -10t-24.5 10t-9.5 25v512zM326 1651v145h110v-145h-110zM766 1651v145h111v-145h-111z" />
<glyph unicode="&#x2c6;" d="M408 1253q-20 20 0 43l180 197h53l180 -195q9 -9 9 -21.5t-9 -21.5t-22.5 -8.5t-22.5 10.5l-162 175l-163 -179q-9 -9 -21.5 -9t-21.5 9z" />
<glyph unicode="&#x2dc;" d="M326 1307q-18 22 2 39q49 47 83.5 62t69.5 15q37 0 64.5 -10.5t68.5 -36.5q72 -45 127 -45q59 0 119 55q9 8 20.5 8t18.5 -8q8 -9 7 -21.5t-11 -21.5q-88 -73 -152 -73q-58 0 -131 45q-68 38 -100 44q-15 3 -29 3q-56 0 -112 -51q-25 -25 -45 -4z" />
<glyph unicode="&#x2000;" horiz-adv-x="983" />
<glyph unicode="&#x2001;" horiz-adv-x="1966" />
<glyph unicode="&#x2002;" horiz-adv-x="983" />
<glyph unicode="&#x2003;" horiz-adv-x="1966" />
<glyph unicode="&#x2004;" horiz-adv-x="655" />
<glyph unicode="&#x2005;" horiz-adv-x="491" />
<glyph unicode="&#x2006;" horiz-adv-x="327" />
<glyph unicode="&#x2007;" horiz-adv-x="327" />
<glyph unicode="&#x2008;" horiz-adv-x="245" />
<glyph unicode="&#x2009;" horiz-adv-x="393" />
<glyph unicode="&#x200a;" horiz-adv-x="109" />
<glyph unicode="&#x2010;" d="M326 553q0 14 9.5 23.5t22.5 9.5h510q14 0 23.5 -10t9.5 -23t-9.5 -23t-23.5 -10h-510q-13 0 -22.5 9.5t-9.5 23.5z" />
<glyph unicode="&#x2011;" d="M326 553q0 14 9.5 23.5t22.5 9.5h510q14 0 23.5 -10t9.5 -23t-9.5 -23t-23.5 -10h-510q-13 0 -22.5 9.5t-9.5 23.5z" />
<glyph unicode="&#x2012;" d="M326 553q0 14 9.5 23.5t22.5 9.5h510q14 0 23.5 -10t9.5 -23t-9.5 -23t-23.5 -10h-510q-13 0 -22.5 9.5t-9.5 23.5z" />
<glyph unicode="&#x2013;" d="M238 543q0 12 7 20t19 8h699q12 0 20 -8t8 -20t-8 -19.5t-20 -7.5h-699q-26 0 -26 27z" />
<glyph unicode="&#x2014;" d="M29 543q0 12 7 20t19 8h1116q12 0 20.5 -8t8.5 -20t-8.5 -19.5t-20.5 -7.5h-1116q-26 0 -26 27z" />
<glyph unicode="&#x2018;" d="M471 1188l250 397h35l-148 -397h-137z" />
<glyph unicode="&#x2019;" d="M471 1188l147 397h138l-250 -397h-35z" />
<glyph unicode="&#x201a;" d="M561 -98v245h107v-137z" />
<glyph unicode="&#x201c;" d="M326 1255l256 408h47l-154 -408h-149zM600 1255l256 408h47l-153 -408h-150z" />
<glyph unicode="&#x201d;" d="M326 1255l153 408h150l-256 -408h-47zM600 1255l154 408h149l-256 -408h-47z" />
<glyph unicode="&#x201e;" d="M326 -238l153 408h150l-256 -408h-47zM600 -238l154 408h149l-256 -408h-47z" />
<glyph unicode="&#x2022;" d="M420 725q0 80 56.5 137.5t135.5 57.5q80 0 137.5 -58t57.5 -137t-57.5 -137t-137.5 -58q-79 0 -135.5 57.5t-56.5 137.5z" />
<glyph unicode="&#x2026;" d="M104 25v141h119v-141h-119zM555 25v141h117v-141h-117zM1006 25v141h118v-139z" />
<glyph unicode="&#x202f;" horiz-adv-x="393" />
<glyph unicode="&#x2039;" d="M446 549l279 278q9 9 23.5 9t23.5 -9t9 -23.5t-9 -23.5l-233 -231l233 -234q9 -9 9 -23.5t-9 -23.5t-23.5 -9t-23.5 9z" />
<glyph unicode="&#x203a;" d="M448 291.5q0 14.5 9 23.5l233 234l-233 231q-9 9 -9 23.5t9 23.5t23.5 9t23.5 -9l278 -278l-278 -281q-9 -9 -23.5 -9t-23.5 9t-9 23.5z" />
<glyph unicode="&#x205f;" horiz-adv-x="491" />
<glyph unicode="&#x20ac;" d="M143 551l23 65h158v222h-181l23 67h158v201q0 33 6 67.5t20 76.5t41.5 78.5t65.5 67t97 48.5t132 18q85 0 151.5 -26t104 -65t62 -90.5t32.5 -95.5t8 -87q0 -13 -10 -23t-24 -10t-23.5 9.5t-9.5 23.5v2q0 71 -21 125.5t-52 85t-73 49.5t-76 25t-69 6q-34 0 -68.5 -6 t-76 -25t-72.5 -49.5t-52.5 -85t-21.5 -125.5v-193h447l-25 -67h-422v-222h385l-22 -65h-363v-182q0 -71 21.5 -125.5t52.5 -85t72.5 -49.5t76 -25t68.5 -6q35 0 69 6t76 25t73 49.5t52 85.5t21 127q0 14 10 24.5t23 10.5t23.5 -10.5t10.5 -24.5q0 -43 -8.5 -87.5t-33 -96.5 t-63.5 -91t-106.5 -65.5t-154.5 -26.5q-85 0 -150.5 26.5t-103 65.5t-61 90.5t-31.5 95t-8 85.5v182h-181z" />
<glyph unicode="&#x2122;" d="M72 1391v55h452v-53h-198v-691h-56v689h-198zM655 694v752h109l141 -406l142 406h108v-752h-55v697h-17l-151 -435h-53l-152 435h-16v-697h-56z" />
<glyph unicode="&#xe000;" horiz-adv-x="1085" d="M0 0v1085h1085v-1085h-1085z" />
</font>
</defs>
</svg>
