<?xml version="1.0" encoding="UTF-8" standalone="no"?>
<svg width="89px" height="89px" viewBox="0 0 89 89" version="1.1" xmlns="http://www.w3.org/2000/svg" xmlns:xlink="http://www.w3.org/1999/xlink" xmlns:sketch="http://www.bohemiancoding.com/sketch/ns">
    <!-- Generator: Sketch 3.3 (11970) - http://www.bohemiancoding.com/sketch -->
    <title>Shape-8</title>
    <desc>Created with Sketch.</desc>
    <defs></defs>
    <g id="Page-1" stroke="none" stroke-width="1" fill="none" fill-rule="evenodd" sketch:type="MSPage">
        <path d="M49.624339,59.9671519 C48.515152,60.6717769 47.435464,61.3356399 46.373476,61.9995019 L46.538674,50.0558029 C52.279309,52.3210879 51.854514,55.3142919 51.948913,56.5954299 C52.102311,57.5388129 51.31172,58.9364179 49.624339,59.9671519 M35.971894,56.5954299 C36.060393,55.2793519 35.600198,52.1463869 41.895427,49.8636329 L42.042925,62.3081399 C40.827539,61.5511039 39.570853,60.7707739 38.290567,59.9671519 C36.603186,58.9364179 35.812595,57.5388129 35.971894,56.5954299 M61.141009,6.54370188 C58.350341,4.28424098 56.403363,4.81416618 53.606794,9.74072388 C51.754215,13.0018019 48.810148,13.3919669 47.010669,13.2929699 L47.022469,12.6465769 C49.111045,11.6158439 50.586028,9.53690588 50.586028,7.07945088 C50.586028,3.62037858 47.74816,0.825168678 44.2495,0.825168678 C40.75084,0.825168678 37.901172,3.62037858 37.901172,7.07945088 C37.901172,9.53690588 39.376155,11.6158439 41.470631,12.6407539 L41.476531,13.2929699 C39.677052,13.3919669 36.727085,13.0018019 34.880406,9.74072388 C32.089737,4.81416618 30.142759,4.28424098 27.357991,6.54370188 C24.549623,8.80898688 13.487248,21.8591229 -5.68434189e-14,20.6595119 C-5.68434189e-14,20.6595119 2.67267,26.6517439 9.959087,25.3240189 C9.959087,25.3240189 13.853043,29.3130159 20.177772,26.5178059 C20.177772,26.5178059 23.458135,29.4411299 28.685476,26.7856809 C28.685476,26.7856809 32.567632,29.7148279 36.715285,27.1816689 C36.715285,27.1816689 39.051659,28.8529709 41.647629,28.4220429 L41.818727,43.4870599 C41.523731,43.4288259 41.287733,43.3589459 40.975037,43.3065359 C40.963237,43.3007129 36.449788,42.3456829 31.670842,41.0237809 C27.074794,39.8358169 22.024451,37.9082869 21.28106,36.9066699 C21.345959,36.8426129 21.452158,36.7960259 21.581956,36.7319689 C21.989052,36.5165049 22.691144,36.3010409 23.517134,36.1321639 C25.204515,35.7944089 27.493689,35.6197089 29.794663,35.5265349 C34.361212,35.3634809 35.187202,35.5614749 35.263902,35.5789449 C35.269801,35.4333609 37.912972,35.8817599 38.638663,33.2321339 C38.609164,33.2088399 38.685863,33.0981959 38.644563,33.0341399 C38.491165,31.2114299 37.069281,31.1182559 35.906994,30.9086149 C34.013116,30.6640349 34.998405,30.7572079 32.455533,30.7921479 C28.272481,31.0949629 15.381126,30.0700519 13.758645,36.7669089 C13.758645,36.9532569 13.746845,37.0697239 13.723245,37.2386009 C14.266039,43.0677779 26.496601,45.6009369 35.3583,47.3421199 C32.349334,49.3744709 30.744553,52.0182729 30.10146,55.4365819 C29.800563,59.0878249 32.73283,62.5527209 39.541353,66.4310749 C34.367112,70.0415539 30.96875,73.4423929 31.246047,77.5420339 C31.729841,80.8846389 34.721108,85.3511519 40.597441,88.1696549 C40.615141,88.1813019 40.621041,88.1638319 40.632841,88.1696549 L40.650541,88.1696549 C40.650541,88.1696549 36.532387,81.9736059 36.25509,78.5844139 C35.983693,76.6102969 37.12828,73.6811499 42.125524,70.1638439 L42.273022,82.5501179 L42.296622,82.5501179 C42.332022,83.6041449 43.152112,84.4485319 44.190501,84.4485319 C45.228889,84.4485319 46.05488,83.6041449 46.084379,82.5501179 L46.102079,82.5501179 L46.273177,70.4957759 C50.881025,73.8616739 51.925313,76.6685309 51.659816,78.5844139 C51.382519,81.9736059 47.276166,88.1696549 47.276166,88.1696549 L47.287966,88.1696549 C47.287966,88.1696549 47.293866,88.1813019 47.323365,88.1696549 C53.193799,85.3511519 56.190965,80.8846389 56.66886,77.5420339 C56.946157,73.4423929 53.547795,70.0415539 48.379453,66.4310749 C55.182076,62.5527209 58.120243,59.0878249 57.819347,55.4365819 C57.176254,52.0182729 55.571472,49.3744709 52.556606,47.3421199 C61.424206,45.6009369 73.648868,43.0677779 74.191662,37.2386009 C74.168062,37.0697239 74.156262,36.9532569 74.156262,36.7669089 C72.53968,30.0700519 59.642426,31.0949629 55.459373,30.7921479 C52.916502,30.7572079 53.901791,30.6640349 52.007912,30.9086149 C50.845625,31.1182559 49.423742,31.2114299 49.270343,33.0341399 C49.229044,33.0981959 49.311643,33.2088399 49.282143,33.2321339 C50.007835,35.8817599 52.651005,35.4333609 52.656905,35.5789449 C52.727704,35.5614749 53.553695,35.3634809 58.126143,35.5265349 C60.421217,35.6197089 62.710391,35.7944089 64.397772,36.1321639 C65.235563,36.3010409 65.919955,36.5165049 66.33295,36.7319689 C66.462749,36.7960259 66.574848,36.8426129 66.639747,36.9066699 C65.896355,37.9082869 60.846012,39.8358169 56.249964,41.0237809 C51.471018,42.3456829 46.951669,43.3007129 46.93987,43.3065359 C46.821871,43.3298289 46.733372,43.3531229 46.615373,43.3705929 L46.810071,28.4220429 C49.429641,28.8704409 51.783715,27.1816689 51.783715,27.1816689 C55.913668,29.7148279 59.813524,26.7856809 59.813524,26.7856809 C65.034965,29.4411299 68.315328,26.5178059 68.315328,26.5178059 C74.634157,29.3130159 78.528113,25.3240189 78.528113,25.3240189 C85.82043,26.6517439 88.499,20.6595119 88.499,20.6595119 C75.005852,21.8591229 63.943477,8.80898688 61.141009,6.54370188" id="Shape-8" fill="#000000" sketch:type="MSShapeGroup"></path>
    </g>
</svg>