<?xml version="1.0" encoding="UTF-8" standalone="no"?>
<svg width="75px" height="103px" viewBox="0 0 75 103" version="1.1" xmlns="http://www.w3.org/2000/svg" xmlns:xlink="http://www.w3.org/1999/xlink" xmlns:sketch="http://www.bohemiancoding.com/sketch/ns">
    <!-- Generator: Sketch 3.3 (11970) - http://www.bohemiancoding.com/sketch -->
    <title>Shape-10</title>
    <desc>Created with Sketch.</desc>
    <defs></defs>
    <g id="Page-1" stroke="none" stroke-width="1" fill="none" fill-rule="evenodd" sketch:type="MSPage">
        <path d="M48.94516,80.168333 C46.755893,80.168333 44.974092,78.396733 44.974092,76.213133 C44.974092,74.0364 46.755893,72.2648 48.94516,72.2648 C51.134428,72.2648 52.916229,74.0364 52.916229,76.213133 C52.916229,78.396733 51.134428,80.168333 48.94516,80.168333 L48.94516,80.168333 L48.94516,80.168333 Z M41.928455,72.821 L21.00265,72.821 C20.615902,72.821 20.298217,72.512 20.298217,72.1206 C20.298217,71.736067 20.615902,71.4202 21.00265,71.4202 L41.928455,71.4202 C42.315202,71.4202 42.632888,71.736067 42.632888,72.1206 C42.632888,72.512 42.315202,72.821 41.928455,72.821 L41.928455,72.821 L41.928455,72.821 Z M41.928455,76.7968 L21.00265,76.7968 C20.615902,76.7968 20.298217,76.4878 20.298217,76.0964 C20.298217,75.711867 20.615902,75.396 21.00265,75.396 L41.928455,75.396 C42.315202,75.396 42.632888,75.711867 42.632888,76.0964 C42.632888,76.4878 42.315202,76.7968 41.928455,76.7968 L41.928455,76.7968 L41.928455,76.7968 Z M41.928455,80.7726 L21.00265,80.7726 C20.615902,80.7726 20.298217,80.456733 20.298217,80.0722 C20.298217,79.6808 20.615902,79.3718 21.00265,79.3718 L41.928455,79.3718 C42.315202,79.3718 42.632888,79.6808 42.632888,80.0722 C42.632888,80.456733 42.315202,80.7726 41.928455,80.7726 L41.928455,80.7726 L41.928455,80.7726 Z M16.375492,62.527867 C15.008063,62.527867 13.875445,61.415467 13.875445,60.035267 L13.875445,54.418333 C13.875445,53.031267 14.869939,51.815867 16.375492,51.1292 C16.375492,51.1292 22.473672,49.0486 31.472458,49.0486 C40.457433,49.0486 46.590144,51.1292 46.590144,51.1292 C48.558413,52.104267 49.083284,53.779733 49.083284,55.159933 L49.083284,60.035267 C49.083284,61.415467 47.964479,62.527867 46.590144,62.527867 L16.375492,62.527867 L16.375492,62.527867 Z M13.958319,80.168333 C11.75524,80.168333 9.973438,78.396733 9.973438,76.213133 C9.973438,74.0364 11.75524,72.2648 13.958319,72.2648 C16.147587,72.2648 17.936294,74.0364 17.936294,76.213133 C17.936294,78.396733 16.147587,80.168333 13.958319,80.168333 L13.958319,80.168333 L13.958319,80.168333 Z M61.217489,84.8926 L60.292057,84.8926 L60.292057,82.509867 C60.292057,78.190733 60.029621,74.214933 59.490937,70.5962 C59.477125,70.541267 59.470219,70.486333 59.4495,70.4314 L59.4495,46.404933 L58.013009,46.404933 L58.013009,40.822333 L56.093084,40.822333 L56.093084,46.404933 L54.64278,46.404933 L54.64278,62.802533 C54.304376,62.5828 53.959066,62.3768 53.579225,62.1708 L53.579225,45.388667 C53.579225,44.015333 47.011423,39.771733 31.25146,39.771733 C15.484591,39.771733 9.09635,44.015333 9.09635,45.388667 L9.09635,62.301267 C6.043807,63.9836 4.165319,66.744 3.440167,70.5962 C2.901483,74.214933 2.645954,78.190733 2.645954,82.509867 L2.645954,84.8926 L1.713616,84.8926 C0.739841,84.8926 0.2495,86.211 0.2495,88.8478 C0.2495,91.409067 0.739841,92.693133 1.713616,92.693133 L7.832514,92.693133 L7.832514,93.881067 C7.832514,95.652667 7.901577,97.101533 8.032794,98.2414 C8.164012,99.388133 8.322855,100.315133 8.509323,101.0224 C9.29663,102.3408 10.767652,103 12.887857,103 C14.918282,103 16.347867,102.3408 17.148987,101.0224 C17.673858,99.958067 17.950107,97.836267 17.950107,94.684467 L17.950107,92.693133 L44.987904,92.693133 L44.987904,94.684467 C44.987904,97.836267 45.257246,99.958067 45.789024,101.0224 C46.583238,102.3408 48.005916,103 50.043247,103 C52.170359,103 53.641381,102.3408 54.435594,101.0224 C54.601343,100.315133 54.773998,99.388133 54.89831,98.2414 C55.029528,97.101533 55.09859,95.652667 55.09859,93.881067 L55.09859,92.693133 L61.217489,92.693133 C62.191264,92.693133 62.681605,91.409067 62.681605,88.8478 C62.681605,86.211 62.191264,84.8926 61.217489,84.8926 L61.217489,84.8926 L61.217489,84.8926 Z M74.2495,11.9617333 C74.2495,11.3986667 73.745347,10.9660667 72.737041,10.6982667 L70.589211,9.9360667 C68.15132,9.0090667 66.645767,8.5627333 66.079458,8.5627333 C66.00349,8.5627333 65.575305,8.6588667 64.781091,8.8854667 C63.986878,9.0914667 62.785198,9.476 61.127708,10.0596667 C60.989584,10.1146 60.05034,10.3137333 58.323788,10.6364667 C56.611049,10.9523333 54.021222,11.4673333 50.581931,12.1952 L16.499803,0.103 C16.430741,0.0343333 16.189024,0 15.747027,0 C14.538441,0 13.488697,0.5699333 12.618515,1.7098 L34.352346,14.9556 L27.038674,16.3564 L20.698777,11.3437333 L18.972225,11.6596 L18.972225,15.6148 L11.658553,12.8338 L10.256593,13.6921333 L16.713896,19.350267 L16.713896,19.666133 C16.713896,20.6618 17.390704,21.169933 18.751227,21.169933 L21.997143,25.118267 L23.599383,24.5964 L24.138067,21.7124 L41.120429,21.7124 L44.684031,24.383533 L44.684031,32.9394 L47.902323,32.9394 L54.470125,18.814667 C56.673205,18.471333 59.014409,18.011267 61.4523,17.4894 C63.897097,16.940067 66.500737,16.390733 69.29775,15.827667 C69.801903,15.6148 70.333681,15.347 70.913802,15.024267 C71.493924,14.7015333 72.032608,14.3650667 72.536761,14.008 C73.027101,13.6578 73.434568,13.3007333 73.759159,12.9368 C74.090657,12.5797333 74.2495,12.257 74.2495,11.9617333 L74.2495,11.9617333 L74.2495,11.9617333 Z" id="Shape-10" fill="#000000" sketch:type="MSShapeGroup"></path>
    </g>
</svg>