<?xml version="1.0" encoding="UTF-8" standalone="no"?>
<svg width="104px" height="104px" viewBox="0 0 104 104" version="1.1" xmlns="http://www.w3.org/2000/svg" xmlns:xlink="http://www.w3.org/1999/xlink" xmlns:sketch="http://www.bohemiancoding.com/sketch/ns">
    <!-- Generator: Sketch 3.3 (11970) - http://www.bohemiancoding.com/sketch -->
    <title>Shape-11</title>
    <desc>Created with Sketch.</desc>
    <defs></defs>
    <g id="Page-1" stroke="none" stroke-width="1" fill="none" fill-rule="evenodd" sketch:type="MSPage">
        <path d="M72.6069744,61.7077131 C73.6232384,56.0702001 73.5477054,50.7760181 73.5477054,46.6903661 L73.3485724,37.0358661 C73.3417054,37.0290001 73.2593064,40.7232531 73.1769064,46.6697661 C73.0670404,50.8034851 72.9983734,56.1388661 71.8928444,61.7763801 C70.7186484,62.6690431 68.9127214,64.1591051 67.8827244,67.5924261 C67.8552584,67.7091591 67.8415244,67.8121591 67.8140584,67.9220251 C69.3727864,67.7778261 70.8834474,67.5992931 72.3666424,67.3932941 C72.8473074,64.8663691 72.6344414,63.0055091 72.6069744,61.7077131 M33.5563774,59.5584541 C28.1385964,56.0839331 24.6022754,54.3260731 24.6091424,54.3192061 C24.6022754,54.3260731 28.0287304,56.2555991 33.3229124,59.8949201 C36.3991674,62.0098461 40.1414884,64.8045691 44.4537394,67.6679591 C44.9893374,67.7297591 45.5318024,67.7709591 46.0674004,67.8258921 C41.2126844,64.7702361 37.0034324,61.7695131 33.5563774,59.5584541 M64.9506684,67.8945591 C64.2846034,66.8439621 63.5842064,66.0748981 62.8838084,65.4912341 C62.6503434,64.8457691 62.4031434,64.2483711 62.1559444,63.7127731 C63.6666064,65.2577681 65.0811344,66.0268321 65.6029994,66.4525641 L65.6029994,66.1984981 C65.7952654,66.8027621 65.9600644,67.4276271 66.1454644,68.0524911 C66.4269964,68.0250251 66.7153954,68.0112911 66.9900614,67.9906921 C66.4750634,66.2053641 65.8982654,64.4749701 65.2665334,62.8338431 C65.0468014,61.9549131 64.6828694,60.9867161 64.0992044,59.9567201 C63.5430064,58.6589241 62.9868084,57.4229281 62.4374774,56.2418661 C63.1104084,56.7019311 63.6597394,57.0109301 63.9344054,57.2306621 C63.8451384,56.2899321 64.0717384,53.5776091 61.8606794,50.4807531 C60.5697504,48.6679591 59.1758214,47.8576951 58.0359594,47.4182301 L54.5339714,40.6065201 C54.5271044,40.6065201 55.6669674,43.0922451 57.6445604,47.2740311 C57.3492944,47.1847641 57.0746294,47.1023641 56.8342964,47.0336981 C54.1425724,43.0922451 52.0139134,39.3430581 50.2079864,36.5277351 C47.6261284,32.5107491 45.7790014,30.2310231 45.7927354,30.2241571 C45.7858684,30.2378901 47.4956624,32.6000151 49.9470544,36.6994011 C51.6225144,39.5215911 53.6275744,43.2570451 56.2300324,47.1984971 C56.6969634,48.4207601 57.1501624,50.3022201 58.9286224,52.8085451 C59.7594864,53.9827401 60.6452834,54.8410711 61.4486804,55.4934021 C61.7508124,56.1869331 62.0735454,56.9010641 62.3825434,57.6426611 C60.8787494,56.1251331 59.3612214,55.6376011 58.3312244,55.3354691 C58.0359594,54.8754041 57.7544264,54.4222061 57.4728944,53.9690071 C55.7356334,50.2472871 53.8747734,46.9581651 52.3160454,44.2183751 C48.8758574,38.2100621 46.6441984,34.5295421 46.6579324,34.5295421 L51.9177804,44.3831741 C52.3160454,45.1247711 52.7280444,45.9281691 53.1675094,46.7452991 C52.5907114,45.7565021 52.0413804,44.8295061 51.5263814,43.9780421 C48.8483914,39.6383241 46.9051314,37.1869321 46.9188644,37.1731991 C46.9051314,37.1869321 48.7041914,39.7344571 51.2379824,44.1565751 C52.7211774,46.7658991 54.4447044,50.0962211 56.5870974,53.6806081 C57.5278274,55.7749341 58.4273574,57.9997261 59.2170214,60.3412521 C59.0041554,60.8287831 58.7569564,61.4193141 58.5440904,62.1265791 C56.1750984,58.0683931 54.2524384,54.3192061 52.5289114,51.4283491 C51.9727134,50.4670191 51.4577154,49.6292891 50.9770504,48.8464921 C48.8071914,44.3900411 46.3283334,40.5584541 44.3301404,37.4753311 C40.8418854,32.0918831 38.5896264,28.7684281 38.5964934,28.7684281 L43.9799414,37.6538641 C46.2871334,41.4717171 49.3084564,46.3676341 51.6362484,52.0806801 C51.0937834,53.5570091 50.2972524,55.9466001 51.4714484,59.6271211 C52.8859774,64.1179051 55.5914344,66.1366981 56.4154314,67.0224951 C56.4909644,66.0130981 57.3355614,63.3007751 56.3398984,59.4554551 C56.9578964,60.6159171 57.6102274,61.8107131 58.3174914,63.0329761 C58.0222254,64.4200371 57.9535594,66.1572981 58.4891574,68.3752241 C60.7208164,68.3546241 62.9181424,68.2790911 65.0742674,68.1348911 C65.0262014,68.0524911 64.9987344,67.9769581 64.9506684,67.8945591 M29.3951924,61.6253141 C29.3883254,61.6390471 32.2379824,63.2527081 36.6944334,66.3976301 C37.0034324,66.4662971 37.3192984,66.5349631 37.6420304,66.5967631 C32.6499814,63.2801751 29.3883254,61.6321801 29.3951924,61.6253141 M54.3897714,38.9379261 C54.8429704,40.0777891 55.2961684,41.8150501 57.0128294,44.1016421 C58.9286224,46.6834991 61.1122154,47.6173631 61.7782794,48.0980281 C61.6684134,47.2328311 61.7988794,44.7265061 59.6839534,41.8974491 C57.9398264,39.5765241 56.0926994,39.0615261 54.9322364,38.7799931 C52.3503784,35.1475391 50.3178524,31.7004851 48.5943254,29.1048941 C46.1292004,25.3900401 44.3850734,23.2819811 44.3919404,23.2751141 C44.3850734,23.2819811 46.0056014,25.4724401 48.3539924,29.2628271 C49.9607874,31.8652841 51.8765804,35.3123391 54.3897714,38.9379261 M57.0128294,19.7593931 C56.4634974,20.5971241 55.6326344,21.9704521 55.7699674,24.4149771 C55.9759664,27.4019671 57.3080954,29.0156281 57.6720274,29.6679591 C57.8711594,29.0224941 58.9148894,27.2715001 58.7226234,24.4767771 C58.5921574,21.9841851 57.8230934,20.5559241 57.4522944,19.5396611 C56.8686294,15.7218074 55.7493674,12.3502858 54.9322364,9.72722828 L52.9271764,3.54724978 C52.9203104,3.54038318 53.5657744,5.95057478 54.6919044,9.78216138 C55.4403684,12.4670187 56.4840974,15.9072071 57.0128294,19.7593931 M54.7949034,35.4153391 C56.6145644,37.7637301 58.6539564,38.5945941 59.2788214,39.0203261 C59.1620884,38.2306621 59.2307544,35.9234701 57.2256954,33.3347461 C55.5845674,31.2266871 53.8541734,30.7666211 52.7829774,30.5194221 C50.3384524,27.2028341 48.4089264,24.0304451 46.7815314,21.6408531 C44.4537394,18.2212651 42.8263454,16.2917391 42.8263454,16.2780051 C42.8263454,16.2917391 44.3507404,18.3036651 46.5617994,21.7919191 C48.0861934,24.1815111 49.8989874,27.3539001 52.2748454,30.6773551 C52.7211774,31.7142181 53.1743764,33.3141461 54.7949034,35.4153391 M51.3890484,19.6289271 C52.2130464,21.6202531 53.5657744,22.3412511 54.2249724,22.9523821 C54.3623054,22.2313851 55.2755684,20.7001231 54.3417054,18.4341311 C53.5177084,16.5458041 52.1237794,15.7836072 51.4233824,15.3990752 C48.0243944,7.62603558 44.4262734,1.97478868 43.6022764,0.642659975 L43.4237434,0.340527675 C43.3688104,0.361127575 47.2278634,6.80890508 51.0457164,15.8454071 C50.9083834,16.6762711 50.7092514,18.0770661 51.3890484,19.6289271 M49.9333204,22.3961841 C50.3521854,23.3506471 50.7779174,24.8269761 52.3160454,26.7221691 C54.0121064,28.8782951 55.9004334,29.6061591 56.4840974,29.9906911 C56.3536314,29.2696931 56.3742314,27.1685011 54.5065044,24.8063761 C52.9546434,22.8905821 51.3890484,22.4717171 50.4002524,22.2519841 C48.1205274,19.2237951 46.3283334,16.3123391 44.7833384,14.1356129 C42.6272124,10.9906905 41.0753514,9.23969668 41.0959514,9.22596338 C41.0753514,9.23969668 42.5379464,11.0662236 44.5773394,14.2660791 C46.0193344,16.4565381 47.7153954,19.3679951 49.9333204,22.3961841 M66.8733284,66.3632971 C67.3951934,65.5942331 69.4277194,63.7402401 70.2791834,59.9704531 C71.0207804,56.6263981 70.5469824,54.4359391 70.4165154,52.9527441 C71.0276474,47.6516961 70.7117814,42.7420461 70.4714494,38.9447931 C70.1143834,33.4102791 69.8122514,29.9700911 69.8122514,29.9700911 L70.1281164,38.9379261 C70.2517164,42.7901131 70.4508494,47.7546961 69.7573184,53.0557441 C68.7135884,53.9690071 67.0930604,55.4590691 66.3857964,58.7344571 C65.5068664,62.7171101 66.6398624,65.3539011 66.8733284,66.3632971 M60.8993494,27.8208321 C60.2264184,28.6791621 59.1964214,30.1142901 59.1689554,32.7854141 C59.1277554,36.0402031 60.4736174,37.9079301 60.8238164,38.6563941 C61.0847484,37.9628631 62.3482104,36.1569361 62.3894104,33.1012801 C62.4237434,30.3752231 61.7302124,28.7615621 61.3937474,27.6285661 C61.0572814,23.4124471 60.1234184,19.6495271 59.4024214,16.7312041 L57.6720274,9.83022788 L59.1346214,16.7724041 C59.7663534,19.7593931 60.6246834,23.5841131 60.8993494,27.8208321 M64.2914704,36.0745361 C63.5018064,36.9603331 62.2795444,38.4297951 62.0460784,41.3206511 C61.7645464,44.8295061 63.0623414,46.9512981 63.3850734,47.7890291 C63.7352724,47.0611651 65.2390674,45.2071711 65.5205994,41.9111831 C65.7609324,38.9653931 65.1154674,37.1525991 64.8408024,35.9028701 C64.7858684,31.3159531 64.0236714,27.1685011 63.4468734,23.9549121 L62.0323454,16.3535381 L63.1653414,23.9755121 C63.6391394,27.2509001 64.3120704,31.4670191 64.2914704,36.0745361 M67.2097934,44.4930401 C66.2965304,45.3925701 64.8751354,46.8826321 64.4219364,49.9726211 C63.8520054,53.7286751 65.0948674,56.1045331 65.3764004,57.0246631 C65.8089984,56.2830661 67.5737254,54.4084721 68.1161904,50.8652851 C68.5899884,47.7134961 68.0200574,45.7153031 67.8140584,44.3488411 C68.0681244,39.3979911 67.5119264,34.8728741 67.0999274,31.3640191 C66.4819294,26.2552371 66.0355974,23.0759821 66.0424644,23.0759821 L66.7840614,31.3708861 C67.0999274,34.9415401 67.5462594,39.5353241 67.2097934,44.4930401 M35.3623044,36.6994011 C35.0739054,38.0177961 34.6825074,40.1395891 36.1176354,43.1265781 C37.8480294,46.7933661 40.3955544,48.1872941 41.1920844,48.8396251 C41.1302844,47.9332281 41.5628834,45.2689711 39.9423554,41.8287831 C38.4866274,38.7799931 36.8042994,37.3242651 35.8155034,36.2324691 C33.1237794,31.7004851 29.9925904,27.9787651 27.5892654,25.0810411 L21.8624854,18.2693321 L27.3145994,25.2664411 C29.6698584,28.2740301 32.7323804,32.1056171 35.3623044,36.6994011 M19.9466924,36.2599361 C20.9492214,37.1113991 22.2401504,38.5396611 25.0211404,39.8717901 C28.1179964,41.4099181 30.6723874,41.2519851 31.5375844,41.3893181 C30.9951204,40.6477201 29.8621244,38.2993281 26.4631354,36.6101341 C23.6546794,35.2711391 21.6358864,35.6076051 20.3930234,35.8616701 C16.1494384,33.6643451 12.5169844,31.3159531 9.58492837,29.6816921 C5.41687637,27.2715001 2.69768537,26.1041711 2.70455237,26.0904381 C2.69768537,26.1041711 5.35507637,27.4019671 9.42699537,29.9426241 C12.2491854,31.6318181 15.7649064,34.0145431 19.9466924,36.2599361 M20.0840244,32.4283491 C22.1096844,34.2342761 24.0323444,34.3372761 25.1172734,34.6943411 C24.8838084,33.8154111 25.0898074,31.6318181 22.7826154,29.5855591 C20.8187554,27.8963651 18.8274294,27.7590321 17.8111664,27.6834991 C9.70852737,20.7413231 2.52601937,16.2780051 0.864291369,15.2136758 L0.500359369,14.9664767 C0.438560369,15.0282765 8.35579937,20.2400581 17.6257664,28.3770301 C17.9210324,29.3795601 18.4634974,31.0412871 20.0840244,32.4283491 M27.1292004,44.3007741 C28.2072634,45.2346381 29.5943254,46.8002321 32.5881814,48.2971601 C35.9391024,49.9932211 38.7063594,49.8764881 39.6470894,50.0412881 C39.0840254,49.2172901 37.8960964,46.6011001 34.2018424,44.7402391 C31.1805194,43.2295781 28.9763274,43.6141101 27.6235984,43.8750421 C23.0435474,41.4236511 19.1089614,38.8692601 15.9571724,37.0358661 C11.4457884,34.4128091 8.52059837,33.0875471 8.53433137,33.0738131 C8.52059837,33.0944131 11.3702554,34.5570081 15.7855064,37.3105321 C18.8274294,39.2057251 22.6246824,41.8150501 27.1292004,44.3007741 M34.0439094,52.4583461 C35.1837724,53.4746091 36.6532334,55.1912701 39.8530894,56.8735971 C43.4443434,58.7687901 46.4381994,58.7001241 47.4407294,58.8923901 C46.8501984,57.9928601 45.6279354,55.1157361 41.6727494,53.0420101 C38.4316944,51.3459501 36.0489694,51.7167481 34.5795074,51.9914141 C29.6835914,49.2653571 25.4743394,46.4637671 22.1028174,44.4381071 C17.2618344,41.5541171 14.1237794,40.0983891 14.1443784,40.0846561 C14.1306454,40.0983891 17.1794354,41.7120501 21.9036854,44.7402391 C25.1516074,46.8276991 29.2235264,49.6910891 34.0439094,52.4583461 M43.7258754,44.1771751 C43.3138774,45.5711031 42.7233454,47.8370951 44.0486074,51.1742841 C45.6416694,55.2530691 48.2853264,56.9491301 49.1024564,57.7181941 C49.1093234,56.7293981 49.7959874,53.8934741 48.3059264,50.0618871 C46.9737974,46.6560331 45.2502704,44.9599721 44.2614734,43.7102431 C41.6796164,38.6083271 38.5484274,34.3716091 36.1313684,31.0756201 L30.3771224,23.3094471 L35.8223694,31.2472861 C38.1638954,34.6668751 41.2195514,39.0203261 43.7258754,44.1771751 M40.6564864,60.7257841 C41.8650154,61.8587801 43.3962764,63.7265061 46.7883984,65.6148331 C50.5925184,67.7366261 53.8061074,67.7366261 54.8910364,67.9838251 C54.2799054,66.9881621 53.0507764,63.8432391 48.8483914,61.5154471 C45.4013364,59.6133871 42.8263454,59.9841861 41.2401514,60.2451191 C36.0421024,57.2169291 31.5856514,54.1269401 27.9875304,51.9090141 C22.8512814,48.7434921 19.5140934,47.1298311 19.5278264,47.1298311 C19.5140934,47.1366981 22.7620154,48.9082911 27.7883974,52.2317471 C31.2423194,54.5183391 35.5408374,57.6563941 40.6564864,60.7257841 M26.5318024,29.6885591 C26.3738694,30.9108211 26.1747364,32.8678141 27.6785314,35.5320711 C29.5462584,38.7593941 31.9289834,39.8717901 32.7117804,40.4211211 C32.5813144,39.5902571 32.8079134,37.1045331 31.0569194,34.0832101 C29.5462584,31.3708861 27.8982644,30.1623571 26.9232014,29.2284931 C24.1628104,25.2527071 21.0522214,22.0665851 18.6832294,19.5533941 L13.0388494,13.6892811 C13.0251164,13.6892811 15.0645094,16.0376731 18.4497634,19.7456601 C20.7638224,22.3549841 23.8332114,25.6578391 26.5318024,29.6885591 M103.4794,60.6777171 L103.493133,60.6777171 C103.197868,68.2790911 100.609143,76.5259281 96.6333574,84.1204351 C96.6333574,84.1204351 87.1436574,103.340168 57.3492944,103.340168 C27.5480654,103.340168 17.8935654,84.2921011 17.8935654,84.2921011 C13.9109134,76.6495281 11.4938544,68.4644901 11.1917224,60.6777171 L11.2191894,60.6777171 C11.1985894,60.4717181 11.1917224,60.2794521 11.1917224,60.0734531 C11.1917224,56.4203991 13.4508484,53.0008111 17.3442344,50.0412881 L21.4985534,52.6986781 C18.9304284,54.4222061 17.4403674,56.3448661 17.4403674,58.3911251 C17.4403674,65.5873671 35.3073714,71.4240131 57.3492944,71.4240131 C79.3843514,71.4240131 97.2513554,65.5873671 97.2513554,58.3911251 C97.2513554,53.4128091 88.6817854,49.0868241 76.1020964,46.8894991 L76.1570294,41.6639831 C92.2593064,44.8157721 103.5,51.8609481 103.5,60.0734531 C103.5,60.2794521 103.493133,60.4717181 103.4794,60.6777171" id="Shape-11" fill="#000000" sketch:type="MSShapeGroup"></path>
    </g>
</svg>