<?xml version="1.0" encoding="UTF-8" standalone="no"?>
<svg width="74px" height="68px" viewBox="0 0 74 68" version="1.1" xmlns="http://www.w3.org/2000/svg" xmlns:xlink="http://www.w3.org/1999/xlink" xmlns:sketch="http://www.bohemiancoding.com/sketch/ns">
    <!-- Generator: Sketch 3.3 (11970) - http://www.bohemiancoding.com/sketch -->
    <title>Shape-6</title>
    <desc>Created with Sketch.</desc>
    <defs></defs>
    <g id="Page-1" stroke="none" stroke-width="1" fill="none" fill-rule="evenodd" sketch:type="MSPage">
        <path d="M36.995067,32.2464395 C41.444933,32.2464395 45.214,30.6417965 48.376267,27.5065715 C51.523733,24.3565355 53.097467,20.5794535 53.097467,16.1111405 C53.097467,11.6724525 51.523733,7.8657465 48.376267,4.7157095 C45.214,1.5607355 41.444933,0.0202785 36.995067,0.0202785 C32.555067,0.0202785 28.7416,1.5607355 25.628667,4.7157095 C22.456533,7.8657465 20.902533,11.6724525 20.902533,16.1111405 C20.902533,20.5794535 22.456533,24.3565355 25.628667,27.5065715 C28.7416,30.6417965 32.555067,32.2464395 36.995067,32.2464395 M61.765333,25.7488715 L44.750267,43.2073825 L44.750267,66.9412805 L44.8884,66.9412805 L44.8884,67.0202785 L58.839867,67.0202785 L58.839867,56.7752525 L73.062667,37.9639045 C73.63,37.2627985 74,36.3987605 74,35.4507875 L74,6.5474715 C74,4.2861595 72.1648,2.4445235 69.895467,2.4445235 C67.640933,2.4445235 65.8008,4.2861595 65.8008,6.5474715 L65.8008,23.2406915 C66.797333,23.4579355 67.734667,23.8726735 68.4944,24.6132775 C70.67,26.7412805 70.724267,30.2369335 68.602933,32.4192465 L60.837867,40.4029615 L59.7772,39.3710525 L67.552133,31.4070875 C69.106133,29.7975075 69.0716,27.2251425 67.478133,25.6599985 C66.9848,25.1909495 66.382933,24.8552085 65.7564,24.6774635 C65.0904,24.4849065 64.389867,24.4750315 63.718933,24.6132775 C62.969067,24.8008975 62.2932,25.1909495 61.765333,25.7488715 M12.2396,25.7488715 L29.2448,43.2073825 L29.2448,66.9412805 L29.106667,66.9412805 L29.106667,67.0202785 L15.165067,67.0202785 L15.165067,56.7752525 L0.937333,37.9639045 C0.37,37.2627985 0,36.3987605 0,35.4507875 L0,6.5474715 C0,4.2861595 1.8352,2.4445235 4.104533,2.4445235 C6.359067,2.4445235 8.1992,4.2861595 8.1992,6.5474715 L8.1992,23.2406915 C7.2076,23.4579355 6.265333,23.8726735 5.5056,24.6132775 C3.334933,26.7412805 3.280667,30.2369335 5.402,32.4192465 L13.162133,40.4029615 L14.217867,39.3710525 L6.447867,31.4070875 C4.893867,29.7975075 4.9284,27.2251425 6.516933,25.6599985 C7.020133,25.1909495 7.6072,24.8552085 8.238667,24.6774635 C8.914533,24.4849065 9.610133,24.4750315 10.281067,24.6132775 C11.035867,24.8008975 11.711733,25.1909495 12.2396,25.7488715" id="Shape-6" fill="#000000" sketch:type="MSShapeGroup"></path>
    </g>
</svg>