<?xml version="1.0" encoding="UTF-8" standalone="no"?>
<svg width="75px" height="79px" viewBox="0 0 75 79" version="1.1" xmlns="http://www.w3.org/2000/svg" xmlns:xlink="http://www.w3.org/1999/xlink" xmlns:sketch="http://www.bohemiancoding.com/sketch/ns">
    <!-- Generator: Sketch 3.3 (11970) - http://www.bohemiancoding.com/sketch -->
    <title>Shape-5</title>
    <desc>Created with Sketch.</desc>
    <defs></defs>
    <g id="Page-1" stroke="none" stroke-width="1" fill="none" fill-rule="evenodd" sketch:type="MSPage">
        <path d="M72.4384581,40.9725084 L72.4384581,31.7567034 C72.4384581,25.9184724 67.1389811,20.8728324 60.1092751,20.8728324 L43.6928121,20.8728324 L43.6047471,15.7494864 C43.6047471,14.2782734 42.4029101,13.0764374 40.9265171,13.0764374 L34.5080891,13.0764374 L34.5080891,9.78692837 C35.0623841,9.46056737 35.5234331,9.04614137 35.9119581,8.54364937 L49.5828461,8.54364937 C50.4997651,9.71440337 51.8466501,10.5328954 53.4473721,10.5328954 C56.1670441,10.5328954 58.3842251,8.32089537 58.3842251,5.59086137 C58.3842251,2.86082837 56.1670441,0.648827375 53.4473721,0.648827375 C51.8155681,0.648827375 50.4272401,1.50876237 49.5310431,2.74168037 L35.9793021,2.74168037 C35.0675641,1.50876237 33.6947771,0.648827375 32.0526131,0.648827375 C30.4259901,0.648827375 29.0324811,1.50876237 28.1362841,2.74168037 L13.1754941,2.74168037 C12.2792971,1.50876237 10.8961491,0.648827375 9.2695261,0.648827375 C6.5343121,0.648827375 4.3274921,2.86082837 4.3274921,5.59086137 C4.3274921,8.32089537 6.5343121,10.5328954 9.2695261,10.5328954 C10.8547071,10.5328954 12.2119531,9.71440337 13.1081501,8.54364937 L28.1984481,8.54364937 C28.5921531,9.05650137 29.0635631,9.47610837 29.6282191,9.79210837 L29.6282191,13.0764374 L22.8160861,13.0764374 C21.3448731,13.0764374 20.1430371,14.2782734 20.1430371,15.7494864 L20.1430371,20.8728324 L0.198770097,20.8728324 L0.198770097,36.8334254 L22.3861191,36.8334254 C24.5618571,41.1952634 27.4576611,43.3554604 31.8143181,43.3554604 C36.1657941,43.3554604 39.7920241,41.1952634 41.9677631,36.8334254 L49.9506501,36.8334254 C52.3336011,36.8334254 53.2142571,38.3668034 53.4680931,41.3040494 C52.7687491,41.7806404 52.2869781,42.5525094 52.2869781,43.4642474 C52.2869781,44.9458214 53.4888141,46.1424774 54.9600281,46.1424774 L71.5215401,46.1424774 C72.9979331,46.1424774 74.1997701,44.9458214 74.1997701,43.4642474 C74.1997701,42.3090334 73.4641631,41.3454924 72.4384581,40.9725084 M63.0102591,49.0745434 C64.4607511,51.9755274 70.9931461,67.2108754 70.9931461,69.3917934 C70.9931461,81.3376324 55.0325521,81.3376324 55.0325521,69.3917934 C55.0325521,67.2108754 61.5597671,51.2502814 63.0102591,49.0745434" id="Shape-5" fill="#000000" sketch:type="MSShapeGroup"></path>
    </g>
</svg>