<?xml version="1.0" encoding="UTF-8" standalone="no"?>
<svg width="106px" height="86px" viewBox="0 0 106 86" version="1.1" xmlns="http://www.w3.org/2000/svg" xmlns:xlink="http://www.w3.org/1999/xlink" xmlns:sketch="http://www.bohemiancoding.com/sketch/ns">
    <!-- Generator: Sketch 3.3 (11970) - http://www.bohemiancoding.com/sketch -->
    <title>Shape-4</title>
    <desc>Created with Sketch.</desc>
    <defs></defs>
    <g id="Page-1" stroke="none" stroke-width="1" fill="none" fill-rule="evenodd" sketch:type="MSPage">
        <path d="M104.561081,38.8318689 C106.029568,36.7310179 105.509625,33.8291739 103.394722,32.3606859 L60.4432133,2.47801388 C56.0307233,-0.585434125 49.3698313,-0.585434125 44.9643683,2.47801388 L1.99880633,32.3606859 C-0.109070672,33.8291739 -0.636039672,36.7310179 0.832448328,38.8318689 C2.30093533,40.9397459 5.19575333,41.4667149 7.31065733,39.9982269 L50.2621663,10.1155559 C51.4706823,9.27240488 53.9298723,9.27240488 55.1313623,10.1155559 L98.0898983,39.9982269 C98.8979173,40.5603279 99.8253833,40.8273259 100.738797,40.8273259 C102.214311,40.8273259 103.66172,40.1317259 104.561081,38.8318689 L104.561081,38.8318689 L104.561081,38.8318689 Z M52.7002773,75.3894839 C52.7002773,75.3894839 54.0422923,84.7063009 54.0422923,84.7133269 C54.2179493,85.1700339 54.6535773,85.5002679 55.1735203,85.5002679 C55.7075153,85.5002679 56.1571963,85.1419289 56.3188003,84.6500909 C56.3328523,84.6290119 56.3609573,84.0809639 56.3328523,83.9825959 L55.7848043,72.5368239 L55.9534343,68.6091459 C56.1080123,67.2671309 56.1361173,67.6676279 57.6537883,66.7612399 C59.2065913,65.8267479 61.8484643,61.7374669 61.9749373,61.5337049 C62.1014093,61.3299439 62.3473283,60.9716049 62.3965123,60.7397379 C62.4667753,60.3322149 62.1997773,59.9387449 61.7922543,59.8544299 C61.4830993,59.8052459 61.2231273,59.9668499 61.0193663,60.1846639 C60.8156043,60.4024779 57.7732353,64.4496019 55.4967283,64.8360459 C54.9908373,64.7587569 54.4357633,64.4987859 52.9883543,64.4987859 L52.4122013,64.4987859 C50.9647923,64.4987859 50.4097173,64.7587569 49.8968013,64.8360459 C47.6202933,64.4496019 44.5779243,60.4024779 44.3741633,60.1846639 C44.1774273,59.9668499 43.9174563,59.8052459 43.6083013,59.8544299 C43.2007783,59.9387449 42.9337803,60.3322149 43.0040423,60.7397379 C43.0532263,60.9716049 43.2991453,61.3299439 43.4185923,61.5337049 C43.5450643,61.7374669 46.1939633,65.8267479 47.7397403,66.7612399 C49.2644383,67.6676279 49.2925433,67.2671309 49.4471203,68.6091459 L49.6157503,72.5368239 L49.0747293,83.9825959 C49.0395973,84.0809639 49.0747293,84.6290119 49.0817553,84.6500909 C49.2433593,85.1419289 49.6860133,85.5002679 50.2270353,85.5002679 C50.7399523,85.5002679 51.1826063,85.1700339 51.3582623,84.7133269 C51.3582623,84.7063009 52.7002773,75.3894839 52.7002773,75.3894839 L52.7002773,75.3894839 L52.7002773,75.3894839 Z M52.7002773,57.8449199 C51.0491073,57.8449199 49.7141183,59.1799089 49.7141183,60.8240529 C49.7141183,62.4681969 51.0491073,63.7961599 52.7002773,63.7961599 C54.3444213,63.7961599 55.6794103,62.4681969 55.6794103,60.8240529 C55.6794103,59.1799089 54.3444213,57.8449199 52.7002773,57.8449199 L52.7002773,57.8449199 L52.7002773,57.8449199 Z M77.3483873,56.9104279 L77.6786213,46.3499639 L83.6087823,59.4820379 C83.8547013,60.0581909 84.5221963,60.3322149 85.1053753,60.0862959 C85.6815283,59.8403769 85.9625783,59.1799089 85.7096333,58.5897029 C85.7096333,58.5897029 81.5360363,45.5208649 80.3415733,43.0827539 C79.1541353,40.6516689 77.3132563,39.1691289 72.7813203,39.1691289 L71.8468283,39.1691289 C67.3219183,39.1691289 65.4740133,40.6516689 64.2865753,43.0827539 C63.0921113,45.5208649 58.9185153,58.5897029 58.9185153,58.5897029 C58.6725963,59.1799089 58.9395943,59.8403769 59.5227733,60.0862959 C60.1059523,60.3322149 60.7734473,60.0581909 61.0123393,59.4820379 L66.9495273,46.3499639 L67.2727343,56.9104279 L66.3452683,83.4556269 C66.2679803,84.5095659 67.0619473,85.4159529 68.1088593,85.4932419 C68.1580433,85.4932419 68.2072273,85.5002679 68.2423583,85.5002679 C69.2400863,85.5002679 70.0762113,84.7273799 70.1535003,83.7226249 L72.3105613,63.1989279 L74.4746483,83.7226249 C74.5449103,84.7273799 75.3810353,85.5002679 76.3787643,85.5002679 C76.4209213,85.5002679 76.4701053,85.4932419 76.5122623,85.4932419 C77.5662013,85.4159529 78.3531423,84.5095659 78.2828793,83.4556269 L77.3413613,56.9104279 L77.3483873,56.9104279 L77.3483873,56.9104279 Z M72.3246133,28.3276139 C69.6335573,28.3276139 67.4554173,30.4987279 67.4554173,33.1827579 C67.4554173,35.8667879 69.6335573,38.0379009 72.3246133,38.0379009 C74.9945913,38.0379009 77.1657043,35.8667879 77.1657043,33.1827579 C77.1657043,30.4987279 74.9945913,28.3276139 72.3246133,28.3276139 L72.3246133,28.3276139 L72.3246133,28.3276139 Z M33.6029113,66.4450589 L34.6427973,84.3549879 C34.6427973,84.9873509 35.1627403,85.5002679 35.7810503,85.5002679 C36.4134133,85.5002679 36.9263303,84.9873509 36.9263303,84.3549879 L37.8959543,66.4450589 L41.0647963,66.4450589 L37.7905603,46.3640159 L44.3811893,59.4890639 C44.6271083,60.0722439 45.2946023,60.3532939 45.8777823,60.1003489 C46.4539353,59.8544299 46.7349853,59.1869349 46.4820403,58.6037559 C46.4820403,58.6037559 41.6479753,45.5349179 40.4535113,43.0968069 C39.2660743,40.6657219 38.0856633,39.1831809 33.5537273,39.1831809 L32.6192353,39.1831809 C28.1013513,39.1831809 26.9139143,40.6657219 25.7194503,43.0968069 C24.5320133,45.5349179 19.6909223,58.6037559 19.6909223,58.6037559 C19.4520293,59.1869349 19.7190273,59.8544299 20.2951803,60.1003489 C20.8783593,60.3532939 21.5458533,60.0722439 21.7917723,59.4890639 L28.3894283,46.3640159 L25.1011393,66.4450589 L28.2699813,66.4450589 L29.2536573,84.3549879 C29.2536573,84.9873509 29.7665743,85.5002679 30.3919113,85.5002679 C31.0313003,85.5002679 31.5371913,84.9873509 31.5371913,84.3549879 L32.5138413,66.4450589 L33.6029113,66.4450589 L33.6029113,66.4450589 Z M37.9451373,33.1968099 C37.9451373,35.8738139 35.7740243,38.0519539 33.0899943,38.0519539 C30.4059643,38.0519539 28.2278243,35.8738139 28.2278243,33.1968099 C28.2278243,30.5127799 30.4059643,28.3416669 33.0899943,28.3416669 C35.7740243,28.3416669 37.9451373,30.5127799 37.9451373,33.1968099 L37.9451373,33.1968099 L37.9451373,33.1968099 Z" id="Shape-4" fill="#000000" sketch:type="MSShapeGroup"></path>
    </g>
</svg>