<?xml version="1.0" encoding="UTF-8" standalone="no"?>
<svg width="92px" height="67px" viewBox="0 0 92 67" version="1.1" xmlns="http://www.w3.org/2000/svg" xmlns:xlink="http://www.w3.org/1999/xlink" xmlns:sketch="http://www.bohemiancoding.com/sketch/ns">
    <!-- Generator: Sketch 3.3 (11970) - http://www.bohemiancoding.com/sketch -->
    <title>Shape-3</title>
    <desc>Created with Sketch.</desc>
    <defs></defs>
    <g id="Page-1" stroke="none" stroke-width="1" fill="none" fill-rule="evenodd" sketch:type="MSPage">
        <path d="M87.1613567,59.6572339 C66.8176567,46.8318739 49.2144027,58.5848999 49.2144027,60.5955259 L49.2144027,17.8483889 C49.2144027,10.2506579 59.2951067,6.15019892 71.7334437,6.15019892 C77.7125957,6.15019892 83.1327207,7.56982292 87.1613567,9.89118292 L87.1613567,59.6572339 L87.1613567,59.6572339 Z M43.0833407,60.5955259 C43.0833407,58.5848999 25.4679337,46.8318739 5.12423368,59.6572339 L5.12423368,9.89118292 C9.15286968,7.56982292 14.5729947,6.15019892 20.5521467,6.15019892 C33.0026367,6.15019892 43.0833407,10.2506579 43.0833407,17.8483889 L43.0833407,60.5955259 L43.0833407,60.5955259 Z M46.4496517,8.38016592 C43.2960137,5.35813392 25.1944967,-5.13977308 0.427196684,5.55919592 L0.427196684,13.2056699 L0.427196684,64.2451179 L37.9488047,64.2451179 C39.2369967,65.3601019 42.2994887,66.1399809 45.8845497,66.1399809 C49.4635337,66.1399809 52.5321027,65.3601019 53.8263697,64.2451179 L91.5728037,64.2451179 L91.5728037,13.2056699 L91.5728037,5.55919592 C67.8202587,-4.93871108 48.8437437,6.16847692 46.4496517,8.38016592 L46.4496517,8.38016592 L46.4496517,8.38016592 Z" id="Shape-3" fill="#000000" sketch:type="MSShapeGroup"></path>
    </g>
</svg>