<?xml version="1.0" encoding="UTF-8" standalone="no"?>
<svg width="80px" height="81px" viewBox="0 0 80 81" version="1.1" xmlns="http://www.w3.org/2000/svg" xmlns:xlink="http://www.w3.org/1999/xlink" xmlns:sketch="http://www.bohemiancoding.com/sketch/ns">
    <!-- Generator: Sketch 3.3 (11970) - http://www.bohemiancoding.com/sketch -->
    <title>Shape-1</title>
    <desc>Created with Sketch.</desc>
    <defs></defs>
    <g id="Page-1" stroke="none" stroke-width="1" fill="none" fill-rule="evenodd" sketch:type="MSPage">
        <path d="M40.0000002,30.7496115 C34.6026672,30.7496115 30.2293332,35.1229455 30.2293332,40.5202785 C30.2293332,45.9282785 34.6026672,50.3016115 40.0000002,50.3016115 C45.3973332,50.3016115 49.7760002,45.9282785 49.7760002,40.5202785 C49.7760002,35.1229455 45.3973332,30.7496115 40.0000002,30.7496115 L40.0000002,30.7496115 L40.0000002,30.7496115 Z M7.44533318,30.4136115 L29.8880002,30.4136115 L29.8986672,7.9602785 L23.1786672,14.6856115 L9.01333318,0.5202785 L1.84276701e-07,9.5389455 L14.1600002,23.6882785 L7.44533318,30.4136115 L7.44533318,30.4136115 Z M80.0000002,9.5282785 L70.9973332,0.5202785 L56.8320002,14.6856115 L50.1120002,7.9709455 L50.1120002,30.4082785 L72.5653332,30.4136115 L65.8400002,23.6882785 L80.0000002,9.5282785 L80.0000002,9.5282785 Z M70.9973332,80.5202785 L80.0000002,71.5122785 L65.8453332,57.3522785 L72.5600002,50.6376115 L50.1173332,50.6376115 L50.1120002,73.0856115 L56.8320002,66.3656115 L70.9973332,80.5202785 L70.9973332,80.5202785 Z M14.1600002,57.3522785 L7.44000018,50.6376115 L29.8933332,50.6376115 L29.8933332,73.0856115 L23.1733332,66.3656115 L9.01333318,80.5202785 L1.84276701e-07,71.5122785 L14.1600002,57.3522785 L14.1600002,57.3522785 Z" id="Shape-1" fill="#000000" sketch:type="MSShapeGroup"></path>
    </g>
</svg>