<?xml version="1.0" encoding="UTF-8" standalone="no"?>
<svg width="83px" height="101px" viewBox="0 0 83 101" version="1.1" xmlns="http://www.w3.org/2000/svg" xmlns:xlink="http://www.w3.org/1999/xlink" xmlns:sketch="http://www.bohemiancoding.com/sketch/ns">
    <!-- Generator: Sketch 3.3 (11970) - http://www.bohemiancoding.com/sketch -->
    <title>Shape-2</title>
    <desc>Created with Sketch.</desc>
    <defs></defs>
    <g id="Page-1" stroke="none" stroke-width="1" fill="none" fill-rule="evenodd" sketch:type="MSPage">
        <path d="M64.6826645,45.0650189 C70.4712495,48.0126619 70.6579775,32.5675449 70.6579775,32.5675449 C69.3242025,33.3611409 58.8940805,42.1173749 64.6826645,45.0650189 M64.1291485,52.4474649 C69.5842885,55.2350549 76.8333575,44.4848269 76.8400265,42.8442829 C76.8400265,42.8442829 75.3728735,46.7855889 68.9440765,46.4588139 C61.6950085,46.1187009 61.6883395,51.1937159 64.1291485,52.4474649 M60.1144845,60.3034009 C65.5696255,63.0909909 72.8320315,52.3407629 72.8453695,50.6935499 C72.8453695,50.6935499 71.3582095,54.6348559 64.9294135,54.3214189 C57.6870135,53.9813059 57.6736755,59.0629899 60.1144845,60.3034009 M55.9864505,68.4060849 C61.4482595,71.1870069 68.6973285,60.4434469 68.7106665,58.7962349 C68.7106665,58.7962349 67.2301755,62.7175339 60.7947095,62.4241029 C53.5589795,62.0706529 53.5523105,67.1590059 55.9864505,68.4060849 M60.2945445,42.0573559 C56.2532055,37.0356919 58.5806435,33.5278629 58.5806435,33.5278629 C57.2602055,34.5015189 52.8120655,46.6655489 58.2605375,49.4598079 C60.7013455,50.7002189 64.8093735,47.7125629 60.2945445,42.0573559 M56.2798805,49.9132919 C52.2518795,44.8849589 54.5793175,41.3771299 54.5793175,41.3771299 C53.2455425,42.3574549 48.7974015,54.5281539 54.2592115,57.3157439 C56.7000205,58.5628239 60.8080475,55.5751679 56.2798805,49.9132919 M52.1518465,58.0093069 C48.1238455,52.9809749 50.4379455,49.4798149 50.4379455,49.4798149 C49.1108385,50.4534709 44.6760365,62.6308389 50.1178395,65.4117599 C52.5719855,66.6588399 56.6800135,63.6645139 52.1518465,58.0093069 M49.9577865,76.0352799 L54.1391715,69.3330589 C54.4792845,68.6661719 53.3188995,68.8195559 52.2652175,68.2793769 C51.2048665,67.7391979 50.6513495,66.7255289 50.3245745,67.3790779 L47.3702625,74.9349149 C47.0101425,75.6484849 49.1775275,77.5691209 49.9577865,76.0352799 M73.4789125,60.6235069 C72.8387005,61.6505139 72.1384685,62.5908249 71.4515745,63.5311369 C75.1127875,65.0716469 77.4068805,67.0189589 77.4068805,69.1596679 C77.4068805,74.1079749 65.6696585,78.1226379 51.2048665,78.1226379 C36.7334045,78.1226379 24.9961825,74.1079749 24.9961825,69.1596679 C24.9961825,64.9182629 33.6390465,61.3770899 45.2095465,60.4501159 C45.2162155,59.4497849 45.2295525,58.4561219 45.3362545,57.3957709 C30.5780315,58.0826649 19.3343065,61.8572489 19.3343065,73.4944379 C19.3343065,86.5520979 33.4723245,100.856837 50.9047665,100.856837 C68.3305405,100.856837 82.4618885,86.5520979 82.4618885,73.4944379 C82.4618885,67.0723099 79.0207485,63.0576469 73.4789125,60.6235069 M27.4436605,43.0643559 L27.4436605,49.1997219 C26.8234545,48.9529739 26.2499315,48.5328339 25.7430965,47.9726489 C25.2295935,47.4057939 24.8894805,46.7322379 24.7027525,45.9519789 L20.1679165,46.3587809 C20.5146975,48.2794169 21.3082945,49.7732449 22.5620425,50.8269279 C23.8091225,51.8806099 25.4363285,52.5141529 27.4436605,52.7142199 L27.4436605,55.3817699 L29.9644955,55.3817699 L29.9644955,52.6475309 C32.2185755,52.3674379 33.9791585,51.6271929 35.2529145,50.4201259 C36.5200005,49.2063909 37.1535435,47.7125629 37.1535435,45.9519789 C37.1535435,44.3714559 36.6533785,43.0710249 35.6397085,42.0573559 C34.6393775,41.0436859 32.7454165,40.2234149 29.9644955,39.5898709 L29.9644955,33.8613069 C31.0915355,34.2681079 31.7784295,35.0617039 32.0451845,36.2087509 L36.4466435,35.7219229 C36.1465435,34.2614389 35.4463115,33.0877169 34.3592845,32.2140939 C33.2722575,31.3404719 31.7984365,30.8136299 29.9644955,30.6269019 L29.9644955,29.1730869 L27.4436605,29.1730869 L27.4436605,30.6269019 C25.4496665,30.7869549 23.8558045,31.4204979 22.6554075,32.5075249 C21.4550095,33.5945519 20.8614795,34.9416649 20.8614795,36.5421949 C20.8614795,38.1293879 21.3883205,39.4698319 22.4486715,40.5835339 C23.5090235,41.6905669 25.1695735,42.5175079 27.4436605,43.0643559 M18.9675185,62.8042289 L11.0115495,62.8042289 C2.87552053,62.8042289 1.11493653,56.0219819 1.11493653,56.0219819 C-4.22016447,32.5275319 11.9852055,19.7766399 11.9852055,19.7766399 L45.7030435,19.7766399 C45.7030435,19.7766399 52.0984955,24.8183109 55.5262975,34.3948169 C53.2788865,37.0090159 51.2048665,40.0766989 49.4709585,43.5911969 C47.8437525,46.9056289 46.6967055,50.2400669 45.9764675,53.4344579 C37.7537425,53.7078819 25.0762095,55.1750349 18.9675185,62.8042289 M40.9214585,0.910389409 C34.3926295,0.190150709 32.1052045,4.19814531 28.8507935,4.35819841 C25.5630375,4.19814531 23.3022885,0.190150709 16.7601205,0.910389409 C10.0912445,1.65730351 6.03656753,7.33251711 6.03656753,7.33251711 L14.1792655,14.9016919 L43.5023145,14.9016919 L51.6450115,7.33251711 C51.6450115,7.33251711 47.5903355,1.65730351 40.9214585,0.910389409 M25.1962485,37.0356919 C25.1962485,37.5491949 25.3896465,38.0360229 25.7564345,38.4761689 C26.1365605,38.9296529 26.6967465,39.2764339 27.4436605,39.5565269 L27.4436605,34.4881809 C26.7567655,34.6749099 26.2099185,35.0150219 25.8097855,35.4751749 C25.4029845,35.9553339 25.1962485,36.4621679 25.1962485,37.0356919 M32.2119065,45.4518139 C32.6720595,45.9253039 32.8921315,46.4854889 32.8921315,47.1457079 C32.8921315,47.8659469 32.6253765,48.5128279 32.0785295,49.0530069 C31.5383505,49.5931859 30.8381185,49.9332979 29.9644955,50.0666759 L29.9644955,44.3581179 C30.9981715,44.6115349 31.7517545,44.9783229 32.2119065,45.4518139" id="Shape-2" fill="#000000" sketch:type="MSShapeGroup"></path>
    </g>
</svg>