<?xml version="1.0" encoding="UTF-8" standalone="no"?>
<svg width="64px" height="100px" viewBox="0 0 64 100" version="1.1" xmlns="http://www.w3.org/2000/svg" xmlns:xlink="http://www.w3.org/1999/xlink" xmlns:sketch="http://www.bohemiancoding.com/sketch/ns">
    <!-- Generator: Sketch 3.3 (11970) - http://www.bohemiancoding.com/sketch -->
    <title>Shape-9</title>
    <desc>Created with Sketch.</desc>
    <defs></defs>
    <g id="Page-1" stroke="none" stroke-width="1" fill="none" fill-rule="evenodd" sketch:type="MSPage">
        <path d="M43.2872701,31.8487479 C43.2740701,25.7173479 38.3174701,20.7673479 32.1860701,20.7475479 C26.0744701,20.7673479 21.0980701,25.7173479 21.0848701,31.8487479 C21.0848701,32.8123479 20.3060701,33.5977479 19.3424701,33.5977479 C18.3854701,33.5977479 17.6000701,32.8123479 17.6000701,31.8487479 C17.6000701,23.7835479 24.1406701,17.2759479 32.1860701,17.2627479 C40.2380701,17.2759479 46.7522701,23.7835479 46.7720701,31.8487479 C46.7720701,32.8123479 45.9998701,33.5977479 45.0362701,33.5977479 C44.0660701,33.5977479 43.2872701,32.8123479 43.2872701,31.8487479 L43.2872701,31.8487479 L43.2872701,31.8487479 Z M51.1676701,31.8487479 C51.1346701,21.3547479 42.6800701,12.8935479 32.1860701,12.8803479 C21.7052701,12.8935479 13.2176701,21.3547479 13.1978701,31.8487479 C13.1978701,32.8123479 12.4322701,33.5977479 11.4686701,33.5977479 C10.5050701,33.5977479 9.7262701,32.8123479 9.7262701,31.8487479 C9.7262701,19.4539479 19.7780701,9.40874788 32.1860701,9.36914788 C44.6006701,9.40874788 54.6524701,19.4539479 54.6524701,31.8487479 C54.6524701,32.8123479 53.8736701,33.5977479 52.9100701,33.5977479 C51.9530701,33.5977479 51.1676701,32.8123479 51.1676701,31.8487479 L51.1676701,31.8487479 L51.1676701,31.8487479 Z M60.2096701,31.8487479 C60.1766701,16.3717479 47.6696701,3.86474788 32.1860701,3.83174788 C16.7222701,3.86474788 4.2020701,16.3717479 4.1624701,31.8487479 C4.1624701,32.8123479 3.3968701,33.5977479 2.4266701,33.5977479 C1.4696701,33.5977479 0.697470097,32.8123479 0.697470097,31.8487479 C0.697470097,14.4577479 14.8016701,0.340347875 32.1860701,0.340347875 C49.5902701,0.340347875 63.7010701,14.4577479 63.7010701,31.8487479 C63.7010701,32.8123479 62.9156701,33.5977479 61.9520701,33.5977479 C60.9950701,33.5977479 60.2096701,32.8123479 60.2096701,31.8487479 L60.2096701,31.8487479 L60.2096701,31.8487479 Z M31.1960701,71.4355479 C31.1960701,73.0063479 29.9156701,74.2933479 28.3448701,74.2933479 L13.9832701,74.2933479 C12.3992701,74.2933479 11.1254701,73.0063479 11.1254701,71.4355479 L11.1254701,54.5395479 C11.1254701,52.9555479 12.3992701,51.6817479 13.9832701,51.6817479 L28.3448701,51.6817479 C29.9156701,51.6817479 31.1960701,52.9555479 31.1960701,54.5395479 L31.1960701,71.4355479 L31.1960701,71.4355479 Z M33.3608701,45.8407479 L33.3608701,35.5909479 C34.1660701,35.0365479 34.6940701,34.1125479 34.6940701,33.0631479 C34.6940701,31.3669479 33.3014701,29.9743479 31.6052701,29.9743479 C29.9024701,29.9743479 28.5230701,31.3669479 28.5230701,33.0631479 C28.5230701,34.1059479 29.0444701,35.0299479 29.8298701,35.5843479 L29.8298701,45.7549479 L10.0760701,45.7549479 C8.5052701,45.7549479 7.2182701,47.0353479 7.2182701,48.6061479 L7.2182701,96.4891479 C7.2182701,98.0665479 8.5052701,99.3403479 10.0760701,99.3403479 L32.7074701,99.3403479 C34.2848701,99.3403479 35.5652701,98.0665479 35.5652701,96.4891479 L35.5652701,48.6061479 C35.5652701,47.2597479 34.6214701,46.1377479 33.3608701,45.8407479 L33.3608701,45.8407479 L33.3608701,45.8407479 Z" id="Shape-9" fill="#000000" sketch:type="MSShapeGroup"></path>
    </g>
</svg>